999
DXF created by Inkscape
  0
SECTION
  2
HEADER
  9
$ACADVER
  1
AC1014
  9
$HANDSEED
  5
FFFF
  9
$MEASUREMENT
 70
     1
  0
ENDSEC
  0
SECTION
  2
TABLES
  0
TABLE
  2
VPORT
  5
8
330
0
100
AcDbSymbolTable
 70
     4
  0
VPORT
  5
2E
330
8
100
AcDbSymbolTableRecord
100
AcDbViewportTableRecord
  2
*ACTIVE
 70
     0
 10
0.0
 20
0.0
 11
1.0
 21
1.0
 12
210.0
 22
148.5
 13
0.0
 23
0.0
 14
10.0
 24
10.0
 15
10.0
 25
10.0
 16
0.0
 26
0.0
 36
1.0
 17
0.0
 27
0.0
 37
0.0
 40
341.0
 41
1.24
 42
50.0
 43
0.0
 44
0.0
 50
0.0
 51
0.0
 71
     0
 72
   100
 73
     1
 74
     3
 75
     0
 76
     0
 77
     0
 78
     0
  0
ENDTAB
  0
TABLE
  2
LTYPE
  5
5
330
0
100
AcDbSymbolTable
 70
     1
  0
LTYPE
  5
14
330
5
100
AcDbSymbolTableRecord
100
AcDbLinetypeTableRecord
  2
BYBLOCK
 70
     0
  3

 72
    65
 73
     0
 40
0.0
  0
LTYPE
  5
15
330
5
100
AcDbSymbolTableRecord
100
AcDbLinetypeTableRecord
  2
BYLAYER
 70
     0
  3

 72
    65
 73
     0
 40
0.0
  0
LTYPE
  5
16
330
5
100
AcDbSymbolTableRecord
100
AcDbLinetypeTableRecord
  2
CONTINUOUS
 70
     0
  3
Solid line
 72
    65
 73
     0
 40
0.0
  0
ENDTAB
  0
TABLE
  2
LAYER
  5
2
100
AcDbSymbolTable
 70
1
  0
LAYER
  5
50
100
AcDbSymbolTableRecord
100
AcDbLayerTableRecord
  2
0
 70
0
  6
CONTINUOUS
  0
ENDTAB
  0
TABLE
  2
STYLE
  5
3
330
0
100
AcDbSymbolTable
 70
     1
  0
STYLE
  5
11
330
3
100
AcDbSymbolTableRecord
100
AcDbTextStyleTableRecord
  2
STANDARD
 70
     0
 40
0.0
 41
1.0
 50
0.0
 71
     0
 42
2.5
  3
txt
  4

  0
ENDTAB
  0
TABLE
  2
VIEW
  5
6
330
0
100
AcDbSymbolTable
 70
     0
  0
ENDTAB
  0
TABLE
  2
UCS
  5
7
330
0
100
AcDbSymbolTable
 70
     0
  0
ENDTAB
  0
TABLE
  2
APPID
  5
9
330
0
100
AcDbSymbolTable
 70
     2
  0
APPID
  5
12
330
9
100
AcDbSymbolTableRecord
100
AcDbRegAppTableRecord
  2
ACAD
 70
     0
  0
ENDTAB
  0
TABLE
  2
DIMSTYLE
  5
A
330
0
100
AcDbSymbolTable
 70
     1
  0
DIMSTYLE
105
27
330
A
100
AcDbSymbolTableRecord
100
AcDbDimStyleTableRecord
  2
ISO-25
 70
     0
  3

  4

  5

  6

  7

 40
1.0
 41
2.5
 42
0.625
 43
3.75
 44
1.25
 45
0.0
 46
0.0
 47
0.0
 48
0.0
140
2.5
141
2.5
142
0.0
143
0.03937007874016
144
1.0
145
0.0
146
1.0
147
0.625
 71
     0
 72
     0
 73
     0
 74
     0
 75
     0
 76
     0
 77
     1
 78
     8
170
     0
171
     3
172
     1
173
     0
174
     0
175
     0
176
     0
177
     0
178
     0
270
     2
271
     2
272
     2
273
     2
274
     3
340
11
275
     0
280
     0
281
     0
282
     0
283
     0
284
     8
285
     0
286
     0
287
     3
288
     0
  0
ENDTAB
  0
TABLE
  2
BLOCK_RECORD
  5
1
330
0
100
AcDbSymbolTable
 70
     1
  0
BLOCK_RECORD
  5
1F
330
1
100
AcDbSymbolTableRecord
100
AcDbBlockTableRecord
  2
*MODEL_SPACE
  0
BLOCK_RECORD
  5
1B
330
1
100
AcDbSymbolTableRecord
100
AcDbBlockTableRecord
  2
*PAPER_SPACE
  0
ENDTAB
  0
ENDSEC
  0
SECTION
  2
BLOCKS
  0
BLOCK
  5
20
330
1F
100
AcDbEntity
  8
0
100
AcDbBlockBegin
  2
*MODEL_SPACE
 70
     0
 10
0.0
 20
0.0
 30
0.0
  3
*MODEL_SPACE
  1

  0
ENDBLK
  5
21
330
1F
100
AcDbEntity
  8
0
100
AcDbBlockEnd
  0
BLOCK
  5
1C
330
1B
100
AcDbEntity
 67
     1
  8
0
100
AcDbBlockBegin
  2
*PAPER_SPACE
  1

  0
ENDBLK
  5
1D
330
1B
100
AcDbEntity
 67
     1
  8
0
100
AcDbBlockEnd
  0
ENDSEC
  0
SECTION
  2
ENTITIES
  0
LWPOLYLINE
  5
100
100
AcDbEntity
  8
0
 62
7
100
AcDbPolyline
 90
35
 70
0
 10
-136.820000
 20
-30.807000
 30
0.0
 10
-136.558000
 20
-28.312000
 30
0.0
 10
-135.783000
 20
-25.926000
 30
0.0
 10
-46.693000
 20
128.381000
 30
0.0
 10
-45.438000
 20
130.553000
 30
0.0
 10
-43.760000
 20
132.418000
 30
0.0
 10
-41.730000
 20
133.892000
 30
0.0
 10
-39.438000
 20
134.913000
 30
0.0
 10
-36.984000
 20
135.434000
 30
0.0
 10
36.984000
 20
135.434000
 30
0.0
 10
39.438000
 20
134.913000
 30
0.0
 10
41.730000
 20
133.892000
 30
0.0
 10
43.760000
 20
132.418000
 30
0.0
 10
45.438000
 20
130.553000
 30
0.0
 10
46.693000
 20
128.381000
 30
0.0
 10
135.783000
 20
-25.926000
 30
0.0
 10
136.558000
 20
-28.312000
 30
0.0
 10
136.820000
 20
-30.807000
 30
0.0
 10
136.558000
 20
-33.302000
 30
0.0
 10
135.783000
 20
-35.688000
 30
0.0
 10
100.052000
 20
-97.575000
 30
0.0
 10
98.797000
 20
-99.747000
 30
0.0
 10
97.119000
 20
-101.612000
 30
0.0
 10
95.089000
 20
-103.086000
 30
0.0
 10
92.797000
 20
-104.107000
 30
0.0
 10
90.343000
 20
-104.628000
 30
0.0
 10
-90.343000
 20
-104.628000
 30
0.0
 10
-92.797000
 20
-104.107000
 30
0.0
 10
-95.089000
 20
-103.086000
 30
0.0
 10
-97.119000
 20
-101.612000
 30
0.0
 10
-98.797000
 20
-99.747000
 30
0.0
 10
-100.052000
 20
-97.575000
 30
0.0
 10
-135.783000
 20
-35.688000
 30
0.0
 10
-136.558000
 20
-33.302000
 30
0.0
 10
-136.820000
 20
-30.807000
 30
0.0
  0
LWPOLYLINE
  5
101
100
AcDbEntity
  8
0
 62
7
100
AcDbPolyline
 90
13
 70
0
 10
-127.418000
 20
-37.769000
 30
0.0
 10
-127.150000
 20
-36.769000
 30
0.0
 10
-126.418000
 20
-36.037000
 30
0.0
 10
-125.418000
 20
-35.769000
 30
0.0
 10
-124.418000
 20
-36.037000
 30
0.0
 10
-123.686000
 20
-36.769000
 30
0.0
 10
-123.418000
 20
-37.769000
 30
0.0
 10
-123.686000
 20
-38.769000
 30
0.0
 10
-124.418000
 20
-39.501000
 30
0.0
 10
-125.418000
 20
-39.769000
 30
0.0
 10
-126.418000
 20
-39.501000
 30
0.0
 10
-127.150000
 20
-38.769000
 30
0.0
 10
-127.418000
 20
-37.769000
 30
0.0
  0
LWPOLYLINE
  5
102
100
AcDbEntity
  8
0
 62
7
100
AcDbPolyline
 90
13
 70
0
 10
-97.418000
 20
-89.731000
 30
0.0
 10
-97.150000
 20
-88.731000
 30
0.0
 10
-96.418000
 20
-87.999000
 30
0.0
 10
-95.418000
 20
-87.731000
 30
0.0
 10
-94.418000
 20
-87.999000
 30
0.0
 10
-93.686000
 20
-88.731000
 30
0.0
 10
-93.418000
 20
-89.731000
 30
0.0
 10
-93.686000
 20
-90.731000
 30
0.0
 10
-94.418000
 20
-91.463000
 30
0.0
 10
-95.418000
 20
-91.731000
 30
0.0
 10
-96.418000
 20
-91.463000
 30
0.0
 10
-97.150000
 20
-90.731000
 30
0.0
 10
-97.418000
 20
-89.731000
 30
0.0
  0
LWPOLYLINE
  5
103
100
AcDbEntity
  8
0
 62
7
100
AcDbPolyline
 90
13
 70
0
 10
-96.241000
 20
-19.769000
 30
0.0
 10
-95.973000
 20
-18.769000
 30
0.0
 10
-95.241000
 20
-18.037000
 30
0.0
 10
-94.241000
 20
-17.769000
 30
0.0
 10
-93.241000
 20
-18.037000
 30
0.0
 10
-92.509000
 20
-18.769000
 30
0.0
 10
-92.241000
 20
-19.769000
 30
0.0
 10
-92.509000
 20
-20.769000
 30
0.0
 10
-93.241000
 20
-21.501000
 30
0.0
 10
-94.241000
 20
-21.769000
 30
0.0
 10
-95.241000
 20
-21.501000
 30
0.0
 10
-95.973000
 20
-20.769000
 30
0.0
 10
-96.241000
 20
-19.769000
 30
0.0
  0
LWPOLYLINE
  5
104
100
AcDbEntity
  8
0
 62
7
100
AcDbPolyline
 90
13
 70
0
 10
-75.200000
 20
-84.000000
 30
0.0
 10
-75.039000
 20
-83.400000
 30
0.0
 10
-74.600000
 20
-82.961000
 30
0.0
 10
-74.000000
 20
-82.800000
 30
0.0
 10
-73.400000
 20
-82.961000
 30
0.0
 10
-72.961000
 20
-83.400000
 30
0.0
 10
-72.800000
 20
-84.000000
 30
0.0
 10
-72.961000
 20
-84.600000
 30
0.0
 10
-73.400000
 20
-85.039000
 30
0.0
 10
-74.000000
 20
-85.200000
 30
0.0
 10
-74.600000
 20
-85.039000
 30
0.0
 10
-75.039000
 20
-84.600000
 30
0.0
 10
-75.200000
 20
-84.000000
 30
0.0
  0
LWPOLYLINE
  5
105
100
AcDbEntity
  8
0
 62
7
100
AcDbPolyline
 90
13
 70
0
 10
-75.200000
 20
64.000000
 30
0.0
 10
-75.039000
 20
64.600000
 30
0.0
 10
-74.600000
 20
65.039000
 30
0.0
 10
-74.000000
 20
65.200000
 30
0.0
 10
-73.400000
 20
65.039000
 30
0.0
 10
-72.961000
 20
64.600000
 30
0.0
 10
-72.800000
 20
64.000000
 30
0.0
 10
-72.961000
 20
63.400000
 30
0.0
 10
-73.400000
 20
62.961000
 30
0.0
 10
-74.000000
 20
62.800000
 30
0.0
 10
-74.600000
 20
62.961000
 30
0.0
 10
-75.039000
 20
63.400000
 30
0.0
 10
-75.200000
 20
64.000000
 30
0.0
  0
LWPOLYLINE
  5
106
100
AcDbEntity
  8
0
 62
7
100
AcDbPolyline
 90
13
 70
0
 10
-67.500000
 20
73.500000
 30
0.0
 10
-67.232000
 20
74.500000
 30
0.0
 10
-66.500000
 20
75.232000
 30
0.0
 10
-65.500000
 20
75.500000
 30
0.0
 10
-64.500000
 20
75.232000
 30
0.0
 10
-63.768000
 20
74.500000
 30
0.0
 10
-63.500000
 20
73.500000
 30
0.0
 10
-63.768000
 20
72.500000
 30
0.0
 10
-64.500000
 20
71.768000
 30
0.0
 10
-65.500000
 20
71.500000
 30
0.0
 10
-66.500000
 20
71.768000
 30
0.0
 10
-67.232000
 20
72.500000
 30
0.0
 10
-67.500000
 20
73.500000
 30
0.0
  0
LWPOLYLINE
  5
107
100
AcDbEntity
  8
0
 62
7
100
AcDbPolyline
 90
13
 70
0
 10
-66.241000
 20
-71.731000
 30
0.0
 10
-65.973000
 20
-70.731000
 30
0.0
 10
-65.241000
 20
-69.999000
 30
0.0
 10
-64.241000
 20
-69.731000
 30
0.0
 10
-63.241000
 20
-69.999000
 30
0.0
 10
-62.509000
 20
-70.731000
 30
0.0
 10
-62.241000
 20
-71.731000
 30
0.0
 10
-62.509000
 20
-72.731000
 30
0.0
 10
-63.241000
 20
-73.463000
 30
0.0
 10
-64.241000
 20
-73.731000
 30
0.0
 10
-65.241000
 20
-73.463000
 30
0.0
 10
-65.973000
 20
-72.731000
 30
0.0
 10
-66.241000
 20
-71.731000
 30
0.0
  0
LWPOLYLINE
  5
108
100
AcDbEntity
  8
0
 62
7
100
AcDbPolyline
 90
13
 70
0
 10
-35.500000
 20
73.500000
 30
0.0
 10
-35.232000
 20
74.500000
 30
0.0
 10
-34.500000
 20
75.232000
 30
0.0
 10
-33.500000
 20
75.500000
 30
0.0
 10
-32.500000
 20
75.232000
 30
0.0
 10
-31.768000
 20
74.500000
 30
0.0
 10
-31.500000
 20
73.500000
 30
0.0
 10
-31.768000
 20
72.500000
 30
0.0
 10
-32.500000
 20
71.768000
 30
0.0
 10
-33.500000
 20
71.500000
 30
0.0
 10
-34.500000
 20
71.768000
 30
0.0
 10
-35.232000
 20
72.500000
 30
0.0
 10
-35.500000
 20
73.500000
 30
0.0
  0
LWPOLYLINE
  5
109
100
AcDbEntity
  8
0
 62
7
100
AcDbPolyline
 90
13
 70
0
 10
-32.000000
 20
91.500000
 30
0.0
 10
-31.732000
 20
92.500000
 30
0.0
 10
-31.000000
 20
93.232000
 30
0.0
 10
-30.000000
 20
93.500000
 30
0.0
 10
-29.000000
 20
93.232000
 30
0.0
 10
-28.268000
 20
92.500000
 30
0.0
 10
-28.000000
 20
91.500000
 30
0.0
 10
-28.268000
 20
90.500000
 30
0.0
 10
-29.000000
 20
89.768000
 30
0.0
 10
-30.000000
 20
89.500000
 30
0.0
 10
-31.000000
 20
89.768000
 30
0.0
 10
-31.732000
 20
90.500000
 30
0.0
 10
-32.000000
 20
91.500000
 30
0.0
  0
LWPOLYLINE
  5
10a
100
AcDbEntity
  8
0
 62
7
100
AcDbPolyline
 90
13
 70
0
 10
-32.000000
 20
127.500000
 30
0.0
 10
-31.732000
 20
128.500000
 30
0.0
 10
-31.000000
 20
129.232000
 30
0.0
 10
-30.000000
 20
129.500000
 30
0.0
 10
-29.000000
 20
129.232000
 30
0.0
 10
-28.268000
 20
128.500000
 30
0.0
 10
-28.000000
 20
127.500000
 30
0.0
 10
-28.268000
 20
126.500000
 30
0.0
 10
-29.000000
 20
125.768000
 30
0.0
 10
-30.000000
 20
125.500000
 30
0.0
 10
-31.000000
 20
125.768000
 30
0.0
 10
-31.732000
 20
126.500000
 30
0.0
 10
-32.000000
 20
127.500000
 30
0.0
  0
LWPOLYLINE
  5
10b
100
AcDbEntity
  8
0
 62
7
100
AcDbPolyline
 90
21
 70
0
 10
-7.500000
 20
-5.000000
 30
0.0
 10
-7.500000
 20
72.500000
 30
0.0
 10
-7.119000
 20
74.413000
 30
0.0
 10
-6.036000
 20
76.036000
 30
0.0
 10
-4.413000
 20
77.119000
 30
0.0
 10
-2.500000
 20
77.500000
 30
0.0
 10
2.500000
 20
77.500000
 30
0.0
 10
4.413000
 20
77.119000
 30
0.0
 10
6.036000
 20
76.036000
 30
0.0
 10
7.119000
 20
74.413000
 30
0.0
 10
7.500000
 20
72.500000
 30
0.0
 10
7.500000
 20
-5.000000
 30
0.0
 10
7.119000
 20
-6.913000
 30
0.0
 10
6.036000
 20
-8.536000
 30
0.0
 10
4.413000
 20
-9.619000
 30
0.0
 10
2.500000
 20
-10.000000
 30
0.0
 10
-2.500000
 20
-10.000000
 30
0.0
 10
-4.413000
 20
-9.619000
 30
0.0
 10
-6.036000
 20
-8.536000
 30
0.0
 10
-7.119000
 20
-6.913000
 30
0.0
 10
-7.500000
 20
-5.000000
 30
0.0
  0
LWPOLYLINE
  5
10c
100
AcDbEntity
  8
0
 62
7
100
AcDbPolyline
 90
13
 70
0
 10
24.415000
 20
69.042000
 30
0.0
 10
24.575000
 20
69.642000
 30
0.0
 10
25.015000
 20
70.081000
 30
0.0
 10
25.615000
 20
70.242000
 30
0.0
 10
26.214000
 20
70.081000
 30
0.0
 10
26.654000
 20
69.642000
 30
0.0
 10
26.814000
 20
69.042000
 30
0.0
 10
26.654000
 20
68.442000
 30
0.0
 10
26.215000
 20
68.003000
 30
0.0
 10
25.614000
 20
67.842000
 30
0.0
 10
25.015000
 20
68.003000
 30
0.0
 10
24.575000
 20
68.442000
 30
0.0
 10
24.415000
 20
69.042000
 30
0.0
  0
LWPOLYLINE
  5
10d
100
AcDbEntity
  8
0
 62
7
100
AcDbPolyline
 90
13
 70
0
 10
28.000000
 20
91.500000
 30
0.0
 10
28.268000
 20
92.500000
 30
0.0
 10
29.000000
 20
93.232000
 30
0.0
 10
30.000000
 20
93.500000
 30
0.0
 10
31.000000
 20
93.232000
 30
0.0
 10
31.732000
 20
92.500000
 30
0.0
 10
32.000000
 20
91.500000
 30
0.0
 10
31.732000
 20
90.500000
 30
0.0
 10
31.000000
 20
89.768000
 30
0.0
 10
30.000000
 20
89.500000
 30
0.0
 10
29.000000
 20
89.768000
 30
0.0
 10
28.268000
 20
90.500000
 30
0.0
 10
28.000000
 20
91.500000
 30
0.0
  0
LWPOLYLINE
  5
10e
100
AcDbEntity
  8
0
 62
7
100
AcDbPolyline
 90
13
 70
0
 10
28.000000
 20
127.500000
 30
0.0
 10
28.268000
 20
128.500000
 30
0.0
 10
29.000000
 20
129.232000
 30
0.0
 10
30.000000
 20
129.500000
 30
0.0
 10
31.000000
 20
129.232000
 30
0.0
 10
31.732000
 20
128.500000
 30
0.0
 10
32.000000
 20
127.500000
 30
0.0
 10
31.732000
 20
126.500000
 30
0.0
 10
31.000000
 20
125.768000
 30
0.0
 10
30.000000
 20
125.500000
 30
0.0
 10
29.000000
 20
125.768000
 30
0.0
 10
28.268000
 20
126.500000
 30
0.0
 10
28.000000
 20
127.500000
 30
0.0
  0
LWPOLYLINE
  5
10f
100
AcDbEntity
  8
0
 62
7
100
AcDbPolyline
 90
5
 70
0
 10
46.767000
 20
118.283000
 30
0.0
 10
49.365000
 20
119.783000
 30
0.0
 10
50.115000
 20
118.484000
 30
0.0
 10
47.517000
 20
116.984000
 30
0.0
 10
46.767000
 20
118.283000
 30
0.0
  0
LWPOLYLINE
  5
110
100
AcDbEntity
  8
0
 62
7
100
AcDbPolyline
 90
5
 70
0
 10
49.767000
 20
113.087000
 30
0.0
 10
52.365000
 20
114.587000
 30
0.0
 10
53.115000
 20
113.288000
 30
0.0
 10
50.517000
 20
111.788000
 30
0.0
 10
49.767000
 20
113.087000
 30
0.0
  0
LWPOLYLINE
  5
111
100
AcDbEntity
  8
0
 62
7
100
AcDbPolyline
 90
5
 70
0
 10
52.642000
 20
108.108000
 30
0.0
 10
55.240000
 20
109.608000
 30
0.0
 10
55.990000
 20
108.309000
 30
0.0
 10
53.392000
 20
106.809000
 30
0.0
 10
52.642000
 20
108.108000
 30
0.0
  0
LWPOLYLINE
  5
112
100
AcDbEntity
  8
0
 62
7
100
AcDbPolyline
 90
5
 70
0
 10
57.892000
 20
99.014000
 30
0.0
 10
60.490000
 20
100.514000
 30
0.0
 10
61.240000
 20
99.215000
 30
0.0
 10
58.642000
 20
97.715000
 30
0.0
 10
57.892000
 20
99.014000
 30
0.0
  0
LWPOLYLINE
  5
113
100
AcDbEntity
  8
0
 62
7
100
AcDbPolyline
 90
13
 70
0
 10
61.810000
 20
90.632000
 30
0.0
 10
61.970000
 20
91.232000
 30
0.0
 10
62.410000
 20
91.671000
 30
0.0
 10
63.010000
 20
91.832000
 30
0.0
 10
63.609000
 20
91.671000
 30
0.0
 10
64.049000
 20
91.232000
 30
0.0
 10
64.209000
 20
90.632000
 30
0.0
 10
64.049000
 20
90.032000
 30
0.0
 10
63.610000
 20
89.593000
 30
0.0
 10
63.009000
 20
89.432000
 30
0.0
 10
62.410000
 20
89.593000
 30
0.0
 10
61.970000
 20
90.032000
 30
0.0
 10
61.810000
 20
90.632000
 30
0.0
  0
LWPOLYLINE
  5
114
100
AcDbEntity
  8
0
 62
7
100
AcDbPolyline
 90
13
 70
0
 10
62.241000
 20
-71.731000
 30
0.0
 10
62.509000
 20
-70.731000
 30
0.0
 10
63.241000
 20
-69.999000
 30
0.0
 10
64.241000
 20
-69.731000
 30
0.0
 10
65.241000
 20
-69.999000
 30
0.0
 10
65.973000
 20
-70.731000
 30
0.0
 10
66.241000
 20
-71.731000
 30
0.0
 10
65.973000
 20
-72.731000
 30
0.0
 10
65.241000
 20
-73.463000
 30
0.0
 10
64.241000
 20
-73.731000
 30
0.0
 10
63.241000
 20
-73.463000
 30
0.0
 10
62.509000
 20
-72.731000
 30
0.0
 10
62.241000
 20
-71.731000
 30
0.0
  0
LWPOLYLINE
  5
115
100
AcDbEntity
  8
0
 62
7
100
AcDbPolyline
 90
13
 70
0
 10
71.405000
 20
-12.347000
 30
0.0
 10
71.565000
 20
-11.747000
 30
0.0
 10
72.005000
 20
-11.308000
 30
0.0
 10
72.605000
 20
-11.147000
 30
0.0
 10
73.204000
 20
-11.308000
 30
0.0
 10
73.644000
 20
-11.747000
 30
0.0
 10
73.804000
 20
-12.347000
 30
0.0
 10
73.644000
 20
-12.947000
 30
0.0
 10
73.205000
 20
-13.386000
 30
0.0
 10
72.604000
 20
-13.547000
 30
0.0
 10
72.005000
 20
-13.386000
 30
0.0
 10
71.565000
 20
-12.947000
 30
0.0
 10
71.405000
 20
-12.347000
 30
0.0
  0
LWPOLYLINE
  5
116
100
AcDbEntity
  8
0
 62
7
100
AcDbPolyline
 90
13
 70
0
 10
72.800000
 20
-84.000000
 30
0.0
 10
72.961000
 20
-83.400000
 30
0.0
 10
73.400000
 20
-82.961000
 30
0.0
 10
74.000000
 20
-82.800000
 30
0.0
 10
74.600000
 20
-82.961000
 30
0.0
 10
75.039000
 20
-83.400000
 30
0.0
 10
75.200000
 20
-84.000000
 30
0.0
 10
75.039000
 20
-84.600000
 30
0.0
 10
74.600000
 20
-85.039000
 30
0.0
 10
74.000000
 20
-85.200000
 30
0.0
 10
73.400000
 20
-85.039000
 30
0.0
 10
72.961000
 20
-84.600000
 30
0.0
 10
72.800000
 20
-84.000000
 30
0.0
  0
LWPOLYLINE
  5
117
100
AcDbEntity
  8
0
 62
7
100
AcDbPolyline
 90
13
 70
0
 10
72.800000
 20
64.000000
 30
0.0
 10
72.961000
 20
64.600000
 30
0.0
 10
73.400000
 20
65.039000
 30
0.0
 10
74.000000
 20
65.200000
 30
0.0
 10
74.600000
 20
65.039000
 30
0.0
 10
75.039000
 20
64.600000
 30
0.0
 10
75.200000
 20
64.000000
 30
0.0
 10
75.039000
 20
63.400000
 30
0.0
 10
74.600000
 20
62.961000
 30
0.0
 10
74.000000
 20
62.800000
 30
0.0
 10
73.400000
 20
62.961000
 30
0.0
 10
72.961000
 20
63.400000
 30
0.0
 10
72.800000
 20
64.000000
 30
0.0
  0
LWPOLYLINE
  5
118
100
AcDbEntity
  8
0
 62
7
100
AcDbPolyline
 90
35
 70
0
 10
89.170000
 20
61.497000
 30
0.0
 10
89.432000
 20
63.992000
 30
0.0
 10
90.207000
 20
66.378000
 30
0.0
 10
125.938000
 20
128.265000
 30
0.0
 10
127.193000
 20
130.437000
 30
0.0
 10
128.871000
 20
132.302000
 30
0.0
 10
130.901000
 20
133.776000
 30
0.0
 10
133.193000
 20
134.797000
 30
0.0
 10
135.647000
 20
135.318000
 30
0.0
 10
316.333000
 20
135.318000
 30
0.0
 10
318.787000
 20
134.797000
 30
0.0
 10
321.079000
 20
133.776000
 30
0.0
 10
323.109000
 20
132.302000
 30
0.0
 10
324.787000
 20
130.437000
 30
0.0
 10
326.042000
 20
128.265000
 30
0.0
 10
361.773000
 20
66.378000
 30
0.0
 10
362.548000
 20
63.992000
 30
0.0
 10
362.810000
 20
61.497000
 30
0.0
 10
362.548000
 20
59.002000
 30
0.0
 10
361.773000
 20
56.616000
 30
0.0
 10
272.683000
 20
-97.691000
 30
0.0
 10
271.428000
 20
-99.863000
 30
0.0
 10
269.750000
 20
-101.728000
 30
0.0
 10
267.720000
 20
-103.202000
 30
0.0
 10
265.428000
 20
-104.223000
 30
0.0
 10
262.974000
 20
-104.744000
 30
0.0
 10
189.006000
 20
-104.744000
 30
0.0
 10
186.552000
 20
-104.223000
 30
0.0
 10
184.260000
 20
-103.202000
 30
0.0
 10
182.230000
 20
-101.728000
 30
0.0
 10
180.552000
 20
-99.863000
 30
0.0
 10
179.297000
 20
-97.691000
 30
0.0
 10
90.207000
 20
56.616000
 30
0.0
 10
89.432000
 20
59.002000
 30
0.0
 10
89.170000
 20
61.497000
 30
0.0
  0
LWPOLYLINE
  5
119
100
AcDbEntity
  8
0
 62
7
100
AcDbPolyline
 90
13
 70
0
 10
92.241000
 20
-19.769000
 30
0.0
 10
92.509000
 20
-18.769000
 30
0.0
 10
93.241000
 20
-18.037000
 30
0.0
 10
94.241000
 20
-17.769000
 30
0.0
 10
95.241000
 20
-18.037000
 30
0.0
 10
95.973000
 20
-18.769000
 30
0.0
 10
96.241000
 20
-19.769000
 30
0.0
 10
95.973000
 20
-20.769000
 30
0.0
 10
95.241000
 20
-21.501000
 30
0.0
 10
94.241000
 20
-21.769000
 30
0.0
 10
93.241000
 20
-21.501000
 30
0.0
 10
92.509000
 20
-20.769000
 30
0.0
 10
92.241000
 20
-19.769000
 30
0.0
  0
LWPOLYLINE
  5
11a
100
AcDbEntity
  8
0
 62
7
100
AcDbPolyline
 90
13
 70
0
 10
93.418000
 20
-89.731000
 30
0.0
 10
93.686000
 20
-88.731000
 30
0.0
 10
94.418000
 20
-87.999000
 30
0.0
 10
95.418000
 20
-87.731000
 30
0.0
 10
96.418000
 20
-87.999000
 30
0.0
 10
97.150000
 20
-88.731000
 30
0.0
 10
97.418000
 20
-89.731000
 30
0.0
 10
97.150000
 20
-90.731000
 30
0.0
 10
96.418000
 20
-91.463000
 30
0.0
 10
95.418000
 20
-91.731000
 30
0.0
 10
94.418000
 20
-91.463000
 30
0.0
 10
93.686000
 20
-90.731000
 30
0.0
 10
93.418000
 20
-89.731000
 30
0.0
  0
LWPOLYLINE
  5
11b
100
AcDbEntity
  8
0
 62
7
100
AcDbPolyline
 90
13
 70
0
 10
98.572000
 20
68.459000
 30
0.0
 10
98.840000
 20
69.459000
 30
0.0
 10
99.572000
 20
70.191000
 30
0.0
 10
100.572000
 20
70.459000
 30
0.0
 10
101.572000
 20
70.191000
 30
0.0
 10
102.304000
 20
69.459000
 30
0.0
 10
102.572000
 20
68.459000
 30
0.0
 10
102.304000
 20
67.459000
 30
0.0
 10
101.572000
 20
66.727000
 30
0.0
 10
100.572000
 20
66.459000
 30
0.0
 10
99.572000
 20
66.727000
 30
0.0
 10
98.840000
 20
67.459000
 30
0.0
 10
98.572000
 20
68.459000
 30
0.0
  0
LWPOLYLINE
  5
11c
100
AcDbEntity
  8
0
 62
7
100
AcDbPolyline
 90
13
 70
0
 10
108.800000
 20
9.243000
 30
0.0
 10
108.960000
 20
9.843000
 30
0.0
 10
109.400000
 20
10.282000
 30
0.0
 10
110.000000
 20
10.443000
 30
0.0
 10
110.599000
 20
10.282000
 30
0.0
 10
111.039000
 20
9.843000
 30
0.0
 10
111.199000
 20
9.243000
 30
0.0
 10
111.039000
 20
8.643000
 30
0.0
 10
110.600000
 20
8.204000
 30
0.0
 10
109.999000
 20
8.043000
 30
0.0
 10
109.400000
 20
8.204000
 30
0.0
 10
108.960000
 20
8.643000
 30
0.0
 10
108.800000
 20
9.243000
 30
0.0
  0
LWPOLYLINE
  5
11d
100
AcDbEntity
  8
0
 62
7
100
AcDbPolyline
 90
13
 70
0
 10
123.418000
 20
-37.769000
 30
0.0
 10
123.686000
 20
-36.769000
 30
0.0
 10
124.418000
 20
-36.037000
 30
0.0
 10
125.418000
 20
-35.769000
 30
0.0
 10
126.418000
 20
-36.037000
 30
0.0
 10
127.150000
 20
-36.769000
 30
0.0
 10
127.418000
 20
-37.769000
 30
0.0
 10
127.150000
 20
-38.769000
 30
0.0
 10
126.418000
 20
-39.501000
 30
0.0
 10
125.418000
 20
-39.769000
 30
0.0
 10
124.418000
 20
-39.501000
 30
0.0
 10
123.686000
 20
-38.769000
 30
0.0
 10
123.418000
 20
-37.769000
 30
0.0
  0
LWPOLYLINE
  5
11e
100
AcDbEntity
  8
0
 62
7
100
AcDbPolyline
 90
13
 70
0
 10
128.572000
 20
120.421000
 30
0.0
 10
128.840000
 20
121.421000
 30
0.0
 10
129.572000
 20
122.153000
 30
0.0
 10
130.572000
 20
122.421000
 30
0.0
 10
131.572000
 20
122.153000
 30
0.0
 10
132.304000
 20
121.421000
 30
0.0
 10
132.572000
 20
120.421000
 30
0.0
 10
132.304000
 20
119.421000
 30
0.0
 10
131.572000
 20
118.689000
 30
0.0
 10
130.572000
 20
118.421000
 30
0.0
 10
129.572000
 20
118.689000
 30
0.0
 10
128.840000
 20
119.421000
 30
0.0
 10
128.572000
 20
120.421000
 30
0.0
  0
LWPOLYLINE
  5
11f
100
AcDbEntity
  8
0
 62
7
100
AcDbPolyline
 90
35
 70
0
 10
143.898000
 20
49.174000
 30
0.0
 10
144.055000
 20
50.671000
 30
0.0
 10
144.520000
 20
52.103000
 30
0.0
 10
165.959000
 20
89.235000
 30
0.0
 10
166.712000
 20
90.538000
 30
0.0
 10
167.719000
 20
91.657000
 30
0.0
 10
168.937000
 20
92.542000
 30
0.0
 10
170.312000
 20
93.154000
 30
0.0
 10
171.784000
 20
93.467000
 30
0.0
 10
280.196000
 20
93.467000
 30
0.0
 10
281.668000
 20
93.154000
 30
0.0
 10
283.043000
 20
92.542000
 30
0.0
 10
284.261000
 20
91.657000
 30
0.0
 10
285.268000
 20
90.538000
 30
0.0
 10
286.021000
 20
89.235000
 30
0.0
 10
307.460000
 20
52.103000
 30
0.0
 10
307.925000
 20
50.671000
 30
0.0
 10
308.082000
 20
49.174000
 30
0.0
 10
307.925000
 20
47.677000
 30
0.0
 10
307.460000
 20
46.246000
 30
0.0
 10
254.006000
 20
-46.339000
 30
0.0
 10
253.253000
 20
-47.642000
 30
0.0
 10
252.246000
 20
-48.761000
 30
0.0
 10
251.028000
 20
-49.645000
 30
0.0
 10
249.653000
 20
-50.258000
 30
0.0
 10
248.180000
 20
-50.570000
 30
0.0
 10
203.800000
 20
-50.570000
 30
0.0
 10
202.327000
 20
-50.258000
 30
0.0
 10
200.952000
 20
-49.645000
 30
0.0
 10
199.734000
 20
-48.761000
 30
0.0
 10
198.727000
 20
-47.642000
 30
0.0
 10
197.974000
 20
-46.339000
 30
0.0
 10
144.520000
 20
46.246000
 30
0.0
 10
144.055000
 20
47.677000
 30
0.0
 10
143.898000
 20
49.174000
 30
0.0
  0
LWPOLYLINE
  5
120
100
AcDbEntity
  8
0
 62
7
100
AcDbPolyline
 90
5
 70
0
 10
144.959000
 20
25.909000
 30
0.0
 10
146.258000
 20
26.659000
 30
0.0
 10
147.758000
 20
24.061000
 30
0.0
 10
146.459000
 20
23.311000
 30
0.0
 10
144.959000
 20
25.909000
 30
0.0
  0
LWPOLYLINE
  5
121
100
AcDbEntity
  8
0
 62
7
100
AcDbPolyline
 90
5
 70
0
 10
150.155000
 20
28.909000
 30
0.0
 10
151.454000
 20
29.659000
 30
0.0
 10
152.954000
 20
27.061000
 30
0.0
 10
151.655000
 20
26.311000
 30
0.0
 10
150.155000
 20
28.909000
 30
0.0
  0
LWPOLYLINE
  5
122
100
AcDbEntity
  8
0
 62
7
100
AcDbPolyline
 90
5
 70
0
 10
172.875000
 20
-82.598000
 30
0.0
 10
175.473000
 20
-81.098000
 30
0.0
 10
176.223000
 20
-82.397000
 30
0.0
 10
173.625000
 20
-83.897000
 30
0.0
 10
172.875000
 20
-82.598000
 30
0.0
  0
LWPOLYLINE
  5
123
100
AcDbEntity
  8
0
 62
7
100
AcDbPolyline
 90
5
 70
0
 10
175.875000
 20
-87.794000
 30
0.0
 10
178.473000
 20
-86.294000
 30
0.0
 10
179.223000
 20
-87.593000
 30
0.0
 10
176.625000
 20
-89.093000
 30
0.0
 10
175.875000
 20
-87.794000
 30
0.0
  0
LWPOLYLINE
  5
124
100
AcDbEntity
  8
0
 62
7
100
AcDbPolyline
 90
5
 70
0
 10
179.834000
 20
-34.497000
 30
0.0
 10
181.133000
 20
-33.747000
 30
0.0
 10
182.633000
 20
-36.345000
 30
0.0
 10
181.334000
 20
-37.095000
 30
0.0
 10
179.834000
 20
-34.497000
 30
0.0
  0
LWPOLYLINE
  5
125
100
AcDbEntity
  8
0
 62
7
100
AcDbPolyline
 90
5
 70
0
 10
185.030000
 20
-31.497000
 30
0.0
 10
186.329000
 20
-30.747000
 30
0.0
 10
187.829000
 20
-33.345000
 30
0.0
 10
186.530000
 20
-34.095000
 30
0.0
 10
185.030000
 20
-31.497000
 30
0.0
  0
LWPOLYLINE
  5
126
100
AcDbEntity
  8
0
 62
7
100
AcDbPolyline
 90
13
 70
0
 10
193.990000
 20
-96.810000
 30
0.0
 10
194.258000
 20
-95.810000
 30
0.0
 10
194.990000
 20
-95.078000
 30
0.0
 10
195.990000
 20
-94.810000
 30
0.0
 10
196.990000
 20
-95.078000
 30
0.0
 10
197.722000
 20
-95.810000
 30
0.0
 10
197.990000
 20
-96.810000
 30
0.0
 10
197.722000
 20
-97.810000
 30
0.0
 10
196.990000
 20
-98.542000
 30
0.0
 10
195.990000
 20
-98.810000
 30
0.0
 10
194.990000
 20
-98.542000
 30
0.0
 10
194.258000
 20
-97.810000
 30
0.0
 10
193.990000
 20
-96.810000
 30
0.0
  0
LWPOLYLINE
  5
127
100
AcDbEntity
  8
0
 62
7
100
AcDbPolyline
 90
13
 70
0
 10
253.990000
 20
-96.810000
 30
0.0
 10
254.258000
 20
-95.810000
 30
0.0
 10
254.990000
 20
-95.078000
 30
0.0
 10
255.990000
 20
-94.810000
 30
0.0
 10
256.990000
 20
-95.078000
 30
0.0
 10
257.722000
 20
-95.810000
 30
0.0
 10
257.990000
 20
-96.810000
 30
0.0
 10
257.722000
 20
-97.810000
 30
0.0
 10
256.990000
 20
-98.542000
 30
0.0
 10
255.990000
 20
-98.810000
 30
0.0
 10
254.990000
 20
-98.542000
 30
0.0
 10
254.258000
 20
-97.810000
 30
0.0
 10
253.990000
 20
-96.810000
 30
0.0
  0
LWPOLYLINE
  5
128
100
AcDbEntity
  8
0
 62
7
100
AcDbPolyline
 90
5
 70
0
 10
264.151000
 20
-33.345000
 30
0.0
 10
265.651000
 20
-30.747000
 30
0.0
 10
266.950000
 20
-31.497000
 30
0.0
 10
265.450000
 20
-34.095000
 30
0.0
 10
264.151000
 20
-33.345000
 30
0.0
  0
LWPOLYLINE
  5
129
100
AcDbEntity
  8
0
 62
7
100
AcDbPolyline
 90
5
 70
0
 10
269.347000
 20
-36.345000
 30
0.0
 10
270.847000
 20
-33.747000
 30
0.0
 10
272.146000
 20
-34.497000
 30
0.0
 10
270.646000
 20
-37.095000
 30
0.0
 10
269.347000
 20
-36.345000
 30
0.0
  0
LWPOLYLINE
  5
12a
100
AcDbEntity
  8
0
 62
7
100
AcDbPolyline
 90
5
 70
0
 10
299.026000
 20
27.061000
 30
0.0
 10
300.526000
 20
29.659000
 30
0.0
 10
301.825000
 20
28.909000
 30
0.0
 10
300.325000
 20
26.311000
 30
0.0
 10
299.026000
 20
27.061000
 30
0.0
  0
LWPOLYLINE
  5
12b
100
AcDbEntity
  8
0
 62
7
100
AcDbPolyline
 90
5
 70
0
 10
304.222000
 20
24.061000
 30
0.0
 10
305.722000
 20
26.659000
 30
0.0
 10
307.021000
 20
25.909000
 30
0.0
 10
305.521000
 20
23.311000
 30
0.0
 10
304.222000
 20
24.061000
 30
0.0
  0
LWPOLYLINE
  5
12c
100
AcDbEntity
  8
0
 62
7
100
AcDbPolyline
 90
13
 70
0
 10
319.408000
 20
120.421000
 30
0.0
 10
319.676000
 20
121.421000
 30
0.0
 10
320.408000
 20
122.153000
 30
0.0
 10
321.408000
 20
122.421000
 30
0.0
 10
322.408000
 20
122.153000
 30
0.0
 10
323.140000
 20
121.421000
 30
0.0
 10
323.408000
 20
120.421000
 30
0.0
 10
323.140000
 20
119.421000
 30
0.0
 10
322.408000
 20
118.689000
 30
0.0
 10
321.408000
 20
118.421000
 30
0.0
 10
320.408000
 20
118.689000
 30
0.0
 10
319.676000
 20
119.421000
 30
0.0
 10
319.408000
 20
120.421000
 30
0.0
  0
LWPOLYLINE
  5
12d
100
AcDbEntity
  8
0
 62
7
100
AcDbPolyline
 90
13
 70
0
 10
349.408000
 20
68.459000
 30
0.0
 10
349.676000
 20
69.459000
 30
0.0
 10
350.408000
 20
70.191000
 30
0.0
 10
351.408000
 20
70.459000
 30
0.0
 10
352.408000
 20
70.191000
 30
0.0
 10
353.140000
 20
69.459000
 30
0.0
 10
353.408000
 20
68.459000
 30
0.0
 10
353.140000
 20
67.459000
 30
0.0
 10
352.408000
 20
66.727000
 30
0.0
 10
351.408000
 20
66.459000
 30
0.0
 10
350.408000
 20
66.727000
 30
0.0
 10
349.676000
 20
67.459000
 30
0.0
 10
349.408000
 20
68.459000
 30
0.0
  0
ENDSEC
  0
SECTION
  2
OBJECTS
  0
DICTIONARY
  5
C
330
0
100
AcDbDictionary
  3
ACAD_GROUP
350
D
  3
ACAD_MLINESTYLE
350
17
  0
DICTIONARY
  5
D
330
C
100
AcDbDictionary
  0
DICTIONARY
  5
1A
330
C
100
AcDbDictionary
  0
DICTIONARY
  5
17
330
C
100
AcDbDictionary
  3
STANDARD
350
18
  0
DICTIONARY
  5
19
330
C
100
AcDbDictionary
  0
ENDSEC
  0
EOF
