999
DXF created by Inkscape
  0
SECTION
  2
HEADER
  9
$ACADVER
  1
AC1014
  9
$HANDSEED
  5
FFFF
  9
$MEASUREMENT
 70
     1
  0
ENDSEC
  0
SECTION
  2
TABLES
  0
TABLE
  2
VPORT
  5
8
330
0
100
AcDbSymbolTable
 70
     4
  0
VPORT
  5
2E
330
8
100
AcDbSymbolTableRecord
100
AcDbViewportTableRecord
  2
*ACTIVE
 70
     0
 10
0.0
 20
0.0
 11
1.0
 21
1.0
 12
210.0
 22
148.5
 13
0.0
 23
0.0
 14
10.0
 24
10.0
 15
10.0
 25
10.0
 16
0.0
 26
0.0
 36
1.0
 17
0.0
 27
0.0
 37
0.0
 40
341.0
 41
1.24
 42
50.0
 43
0.0
 44
0.0
 50
0.0
 51
0.0
 71
     0
 72
   100
 73
     1
 74
     3
 75
     0
 76
     0
 77
     0
 78
     0
  0
ENDTAB
  0
TABLE
  2
LTYPE
  5
5
330
0
100
AcDbSymbolTable
 70
     1
  0
LTYPE
  5
14
330
5
100
AcDbSymbolTableRecord
100
AcDbLinetypeTableRecord
  2
BYBLOCK
 70
     0
  3

 72
    65
 73
     0
 40
0.0
  0
LTYPE
  5
15
330
5
100
AcDbSymbolTableRecord
100
AcDbLinetypeTableRecord
  2
BYLAYER
 70
     0
  3

 72
    65
 73
     0
 40
0.0
  0
LTYPE
  5
16
330
5
100
AcDbSymbolTableRecord
100
AcDbLinetypeTableRecord
  2
CONTINUOUS
 70
     0
  3
Solid line
 72
    65
 73
     0
 40
0.0
  0
ENDTAB
  0
TABLE
  2
LAYER
  5
2
100
AcDbSymbolTable
 70
1
  0
LAYER
  5
50
100
AcDbSymbolTableRecord
100
AcDbLayerTableRecord
  2
0
 70
0
  6
CONTINUOUS
  0
ENDTAB
  0
TABLE
  2
STYLE
  5
3
330
0
100
AcDbSymbolTable
 70
     1
  0
STYLE
  5
11
330
3
100
AcDbSymbolTableRecord
100
AcDbTextStyleTableRecord
  2
STANDARD
 70
     0
 40
0.0
 41
1.0
 50
0.0
 71
     0
 42
2.5
  3
txt
  4

  0
ENDTAB
  0
TABLE
  2
VIEW
  5
6
330
0
100
AcDbSymbolTable
 70
     0
  0
ENDTAB
  0
TABLE
  2
UCS
  5
7
330
0
100
AcDbSymbolTable
 70
     0
  0
ENDTAB
  0
TABLE
  2
APPID
  5
9
330
0
100
AcDbSymbolTable
 70
     2
  0
APPID
  5
12
330
9
100
AcDbSymbolTableRecord
100
AcDbRegAppTableRecord
  2
ACAD
 70
     0
  0
ENDTAB
  0
TABLE
  2
DIMSTYLE
  5
A
330
0
100
AcDbSymbolTable
 70
     1
  0
DIMSTYLE
105
27
330
A
100
AcDbSymbolTableRecord
100
AcDbDimStyleTableRecord
  2
ISO-25
 70
     0
  3

  4

  5

  6

  7

 40
1.0
 41
2.5
 42
0.625
 43
3.75
 44
1.25
 45
0.0
 46
0.0
 47
0.0
 48
0.0
140
2.5
141
2.5
142
0.0
143
0.03937007874016
144
1.0
145
0.0
146
1.0
147
0.625
 71
     0
 72
     0
 73
     0
 74
     0
 75
     0
 76
     0
 77
     1
 78
     8
170
     0
171
     3
172
     1
173
     0
174
     0
175
     0
176
     0
177
     0
178
     0
270
     2
271
     2
272
     2
273
     2
274
     3
340
11
275
     0
280
     0
281
     0
282
     0
283
     0
284
     8
285
     0
286
     0
287
     3
288
     0
  0
ENDTAB
  0
TABLE
  2
BLOCK_RECORD
  5
1
330
0
100
AcDbSymbolTable
 70
     1
  0
BLOCK_RECORD
  5
1F
330
1
100
AcDbSymbolTableRecord
100
AcDbBlockTableRecord
  2
*MODEL_SPACE
  0
BLOCK_RECORD
  5
1B
330
1
100
AcDbSymbolTableRecord
100
AcDbBlockTableRecord
  2
*PAPER_SPACE
  0
ENDTAB
  0
ENDSEC
  0
SECTION
  2
BLOCKS
  0
BLOCK
  5
20
330
1F
100
AcDbEntity
  8
0
100
AcDbBlockBegin
  2
*MODEL_SPACE
 70
     0
 10
0.0
 20
0.0
 30
0.0
  3
*MODEL_SPACE
  1

  0
ENDBLK
  5
21
330
1F
100
AcDbEntity
  8
0
100
AcDbBlockEnd
  0
BLOCK
  5
1C
330
1B
100
AcDbEntity
 67
     1
  8
0
100
AcDbBlockBegin
  2
*PAPER_SPACE
  1

  0
ENDBLK
  5
1D
330
1B
100
AcDbEntity
 67
     1
  8
0
100
AcDbBlockEnd
  0
ENDSEC
  0
SECTION
  2
ENTITIES
  0
LWPOLYLINE
  5
100
100
AcDbEntity
  8
0
 62
7
100
AcDbPolyline
 90
62
 70
0
 10
-30.200000
 20
-0.000000
 30
0.0
 10
-30.064000
 20
2.764000
 30
0.0
 10
-29.996000
 20
3.282000
 30
0.0
 10
-29.590000
 20
6.020000
 30
0.0
 10
-28.918000
 20
8.704000
 30
0.0
 10
-28.555000
 20
9.718000
 30
0.0
 10
-28.355000
 20
10.200000
 30
0.0
 10
-28.037000
 20
10.614000
 30
0.0
 10
-27.623000
 20
10.932000
 30
0.0
 10
-27.141000
 20
11.132000
 30
0.0
 10
-26.623000
 20
11.200000
 30
0.0
 10
26.623000
 20
11.200000
 30
0.0
 10
27.141000
 20
11.132000
 30
0.0
 10
27.623000
 20
10.932000
 30
0.0
 10
28.037000
 20
10.614000
 30
0.0
 10
28.355000
 20
10.200000
 30
0.0
 10
28.555000
 20
9.718000
 30
0.0
 10
28.918000
 20
8.704000
 30
0.0
 10
29.590000
 20
6.020000
 30
0.0
 10
29.996000
 20
3.282000
 30
0.0
 10
30.064000
 20
2.764000
 30
0.0
 10
30.200000
 20
-0.000000
 30
0.0
 10
30.064000
 20
-2.764000
 30
0.0
 10
29.996000
 20
-3.282000
 30
0.0
 10
29.590000
 20
-6.020000
 30
0.0
 10
28.918000
 20
-8.704000
 30
0.0
 10
28.555000
 20
-9.718000
 30
0.0
 10
28.355000
 20
-10.200000
 30
0.0
 10
28.037000
 20
-10.614000
 30
0.0
 10
27.623000
 20
-10.932000
 30
0.0
 10
27.141000
 20
-11.132000
 30
0.0
 10
26.623000
 20
-11.200000
 30
0.0
 10
5.900000
 20
-11.200000
 30
0.0
 10
5.900000
 20
-0.000000
 30
0.0
 10
5.787000
 20
1.151000
 30
0.0
 10
5.451000
 20
2.258000
 30
0.0
 10
4.906000
 20
3.278000
 30
0.0
 10
4.172000
 20
4.172000
 30
0.0
 10
3.278000
 20
4.906000
 30
0.0
 10
2.258000
 20
5.451000
 30
0.0
 10
1.151000
 20
5.787000
 30
0.0
 10
0.000000
 20
5.900000
 30
0.0
 10
-1.151000
 20
5.787000
 30
0.0
 10
-2.258000
 20
5.451000
 30
0.0
 10
-3.278000
 20
4.906000
 30
0.0
 10
-4.172000
 20
4.172000
 30
0.0
 10
-4.906000
 20
3.278000
 30
0.0
 10
-5.451000
 20
2.258000
 30
0.0
 10
-5.787000
 20
1.151000
 30
0.0
 10
-5.900000
 20
-0.000000
 30
0.0
 10
-5.900000
 20
-11.200000
 30
0.0
 10
-26.623000
 20
-11.200000
 30
0.0
 10
-27.141000
 20
-11.132000
 30
0.0
 10
-27.623000
 20
-10.932000
 30
0.0
 10
-28.037000
 20
-10.614000
 30
0.0
 10
-28.355000
 20
-10.200000
 30
0.0
 10
-28.555000
 20
-9.718000
 30
0.0
 10
-28.918000
 20
-8.704000
 30
0.0
 10
-29.590000
 20
-6.020000
 30
0.0
 10
-29.996000
 20
-3.282000
 30
0.0
 10
-30.064000
 20
-2.764000
 30
0.0
 10
-30.200000
 20
-0.000000
 30
0.0
  0
LWPOLYLINE
  5
101
100
AcDbEntity
  8
0
 62
7
100
AcDbPolyline
 90
33
 70
0
 10
-27.000000
 20
-0.000000
 30
0.0
 10
-26.962000
 20
0.390000
 30
0.0
 10
-26.848000
 20
0.765000
 30
0.0
 10
-26.663000
 20
1.111000
 30
0.0
 10
-26.414000
 20
1.414000
 30
0.0
 10
-26.111000
 20
1.663000
 30
0.0
 10
-25.765000
 20
1.848000
 30
0.0
 10
-25.390000
 20
1.962000
 30
0.0
 10
-25.000000
 20
2.000000
 30
0.0
 10
-24.610000
 20
1.962000
 30
0.0
 10
-24.235000
 20
1.848000
 30
0.0
 10
-23.889000
 20
1.663000
 30
0.0
 10
-23.586000
 20
1.414000
 30
0.0
 10
-23.337000
 20
1.111000
 30
0.0
 10
-23.152000
 20
0.765000
 30
0.0
 10
-23.038000
 20
0.390000
 30
0.0
 10
-23.000000
 20
-0.000000
 30
0.0
 10
-23.038000
 20
-0.390000
 30
0.0
 10
-23.152000
 20
-0.765000
 30
0.0
 10
-23.337000
 20
-1.111000
 30
0.0
 10
-23.586000
 20
-1.414000
 30
0.0
 10
-23.889000
 20
-1.663000
 30
0.0
 10
-24.235000
 20
-1.848000
 30
0.0
 10
-24.610000
 20
-1.962000
 30
0.0
 10
-25.000000
 20
-2.000000
 30
0.0
 10
-25.390000
 20
-1.962000
 30
0.0
 10
-25.765000
 20
-1.848000
 30
0.0
 10
-26.111000
 20
-1.663000
 30
0.0
 10
-26.414000
 20
-1.414000
 30
0.0
 10
-26.663000
 20
-1.111000
 30
0.0
 10
-26.848000
 20
-0.765000
 30
0.0
 10
-26.962000
 20
-0.390000
 30
0.0
 10
-27.000000
 20
-0.000000
 30
0.0
  0
LWPOLYLINE
  5
102
100
AcDbEntity
  8
0
 62
7
100
AcDbPolyline
 90
29
 70
0
 10
-19.000000
 20
-4.000000
 30
0.0
 10
-19.000000
 20
4.000000
 30
0.0
 10
-18.932000
 20
4.518000
 30
0.0
 10
-18.732000
 20
5.000000
 30
0.0
 10
-18.414000
 20
5.414000
 30
0.0
 10
-18.000000
 20
5.732000
 30
0.0
 10
-17.518000
 20
5.932000
 30
0.0
 10
-17.000000
 20
6.000000
 30
0.0
 10
-13.000000
 20
6.000000
 30
0.0
 10
-12.482000
 20
5.932000
 30
0.0
 10
-12.000000
 20
5.732000
 30
0.0
 10
-11.586000
 20
5.414000
 30
0.0
 10
-11.268000
 20
5.000000
 30
0.0
 10
-11.068000
 20
4.518000
 30
0.0
 10
-11.000000
 20
4.000000
 30
0.0
 10
-11.000000
 20
-4.000000
 30
0.0
 10
-11.068000
 20
-4.518000
 30
0.0
 10
-11.268000
 20
-5.000000
 30
0.0
 10
-11.586000
 20
-5.414000
 30
0.0
 10
-12.000000
 20
-5.732000
 30
0.0
 10
-12.482000
 20
-5.932000
 30
0.0
 10
-13.000000
 20
-6.000000
 30
0.0
 10
-17.000000
 20
-6.000000
 30
0.0
 10
-17.518000
 20
-5.932000
 30
0.0
 10
-18.000000
 20
-5.732000
 30
0.0
 10
-18.414000
 20
-5.414000
 30
0.0
 10
-18.732000
 20
-5.000000
 30
0.0
 10
-18.932000
 20
-4.518000
 30
0.0
 10
-19.000000
 20
-4.000000
 30
0.0
  0
LWPOLYLINE
  5
103
100
AcDbEntity
  8
0
 62
7
100
AcDbPolyline
 90
29
 70
0
 10
11.000000
 20
-4.000000
 30
0.0
 10
11.000000
 20
4.000000
 30
0.0
 10
11.068000
 20
4.518000
 30
0.0
 10
11.268000
 20
5.000000
 30
0.0
 10
11.586000
 20
5.414000
 30
0.0
 10
12.000000
 20
5.732000
 30
0.0
 10
12.482000
 20
5.932000
 30
0.0
 10
13.000000
 20
6.000000
 30
0.0
 10
17.000000
 20
6.000000
 30
0.0
 10
17.518000
 20
5.932000
 30
0.0
 10
18.000000
 20
5.732000
 30
0.0
 10
18.414000
 20
5.414000
 30
0.0
 10
18.732000
 20
5.000000
 30
0.0
 10
18.932000
 20
4.518000
 30
0.0
 10
19.000000
 20
4.000000
 30
0.0
 10
19.000000
 20
-4.000000
 30
0.0
 10
18.932000
 20
-4.518000
 30
0.0
 10
18.732000
 20
-5.000000
 30
0.0
 10
18.414000
 20
-5.414000
 30
0.0
 10
18.000000
 20
-5.732000
 30
0.0
 10
17.518000
 20
-5.932000
 30
0.0
 10
17.000000
 20
-6.000000
 30
0.0
 10
13.000000
 20
-6.000000
 30
0.0
 10
12.482000
 20
-5.932000
 30
0.0
 10
12.000000
 20
-5.732000
 30
0.0
 10
11.586000
 20
-5.414000
 30
0.0
 10
11.268000
 20
-5.000000
 30
0.0
 10
11.068000
 20
-4.518000
 30
0.0
 10
11.000000
 20
-4.000000
 30
0.0
  0
LWPOLYLINE
  5
104
100
AcDbEntity
  8
0
 62
7
100
AcDbPolyline
 90
33
 70
0
 10
23.000000
 20
-0.000000
 30
0.0
 10
23.038000
 20
0.390000
 30
0.0
 10
23.152000
 20
0.765000
 30
0.0
 10
23.337000
 20
1.111000
 30
0.0
 10
23.586000
 20
1.414000
 30
0.0
 10
23.889000
 20
1.663000
 30
0.0
 10
24.235000
 20
1.848000
 30
0.0
 10
24.610000
 20
1.962000
 30
0.0
 10
25.000000
 20
2.000000
 30
0.0
 10
25.390000
 20
1.962000
 30
0.0
 10
25.765000
 20
1.848000
 30
0.0
 10
26.111000
 20
1.663000
 30
0.0
 10
26.414000
 20
1.414000
 30
0.0
 10
26.663000
 20
1.111000
 30
0.0
 10
26.848000
 20
0.765000
 30
0.0
 10
26.962000
 20
0.390000
 30
0.0
 10
27.000000
 20
-0.000000
 30
0.0
 10
26.962000
 20
-0.390000
 30
0.0
 10
26.848000
 20
-0.765000
 30
0.0
 10
26.663000
 20
-1.111000
 30
0.0
 10
26.414000
 20
-1.414000
 30
0.0
 10
26.111000
 20
-1.663000
 30
0.0
 10
25.765000
 20
-1.848000
 30
0.0
 10
25.390000
 20
-1.962000
 30
0.0
 10
25.000000
 20
-2.000000
 30
0.0
 10
24.610000
 20
-1.962000
 30
0.0
 10
24.235000
 20
-1.848000
 30
0.0
 10
23.889000
 20
-1.663000
 30
0.0
 10
23.586000
 20
-1.414000
 30
0.0
 10
23.337000
 20
-1.111000
 30
0.0
 10
23.152000
 20
-0.765000
 30
0.0
 10
23.038000
 20
-0.390000
 30
0.0
 10
23.000000
 20
-0.000000
 30
0.0
  0
ENDSEC
  0
SECTION
  2
OBJECTS
  0
DICTIONARY
  5
C
330
0
100
AcDbDictionary
  3
ACAD_GROUP
350
D
  3
ACAD_MLINESTYLE
350
17
  0
DICTIONARY
  5
D
330
C
100
AcDbDictionary
  0
DICTIONARY
  5
1A
330
C
100
AcDbDictionary
  0
DICTIONARY
  5
17
330
C
100
AcDbDictionary
  3
STANDARD
350
18
  0
DICTIONARY
  5
19
330
C
100
AcDbDictionary
  0
ENDSEC
  0
EOF
