999
DXF created by Inkscape
  0
SECTION
  2
HEADER
  9
$ACADVER
  1
AC1014
  9
$HANDSEED
  5
FFFF
  9
$MEASUREMENT
 70
     1
  0
ENDSEC
  0
SECTION
  2
TABLES
  0
TABLE
  2
VPORT
  5
8
330
0
100
AcDbSymbolTable
 70
     4
  0
VPORT
  5
2E
330
8
100
AcDbSymbolTableRecord
100
AcDbViewportTableRecord
  2
*ACTIVE
 70
     0
 10
0.0
 20
0.0
 11
1.0
 21
1.0
 12
210.0
 22
148.5
 13
0.0
 23
0.0
 14
10.0
 24
10.0
 15
10.0
 25
10.0
 16
0.0
 26
0.0
 36
1.0
 17
0.0
 27
0.0
 37
0.0
 40
341.0
 41
1.24
 42
50.0
 43
0.0
 44
0.0
 50
0.0
 51
0.0
 71
     0
 72
   100
 73
     1
 74
     3
 75
     0
 76
     0
 77
     0
 78
     0
  0
ENDTAB
  0
TABLE
  2
LTYPE
  5
5
330
0
100
AcDbSymbolTable
 70
     1
  0
LTYPE
  5
14
330
5
100
AcDbSymbolTableRecord
100
AcDbLinetypeTableRecord
  2
BYBLOCK
 70
     0
  3

 72
    65
 73
     0
 40
0.0
  0
LTYPE
  5
15
330
5
100
AcDbSymbolTableRecord
100
AcDbLinetypeTableRecord
  2
BYLAYER
 70
     0
  3

 72
    65
 73
     0
 40
0.0
  0
LTYPE
  5
16
330
5
100
AcDbSymbolTableRecord
100
AcDbLinetypeTableRecord
  2
CONTINUOUS
 70
     0
  3
Solid line
 72
    65
 73
     0
 40
0.0
  0
ENDTAB
  0
TABLE
  2
LAYER
  5
2
100
AcDbSymbolTable
 70
1
  0
LAYER
  5
50
100
AcDbSymbolTableRecord
100
AcDbLayerTableRecord
  2
0
 70
0
  6
CONTINUOUS
  0
ENDTAB
  0
TABLE
  2
STYLE
  5
3
330
0
100
AcDbSymbolTable
 70
     1
  0
STYLE
  5
11
330
3
100
AcDbSymbolTableRecord
100
AcDbTextStyleTableRecord
  2
STANDARD
 70
     0
 40
0.0
 41
1.0
 50
0.0
 71
     0
 42
2.5
  3
txt
  4

  0
ENDTAB
  0
TABLE
  2
VIEW
  5
6
330
0
100
AcDbSymbolTable
 70
     0
  0
ENDTAB
  0
TABLE
  2
UCS
  5
7
330
0
100
AcDbSymbolTable
 70
     0
  0
ENDTAB
  0
TABLE
  2
APPID
  5
9
330
0
100
AcDbSymbolTable
 70
     2
  0
APPID
  5
12
330
9
100
AcDbSymbolTableRecord
100
AcDbRegAppTableRecord
  2
ACAD
 70
     0
  0
ENDTAB
  0
TABLE
  2
DIMSTYLE
  5
A
330
0
100
AcDbSymbolTable
 70
     1
  0
DIMSTYLE
105
27
330
A
100
AcDbSymbolTableRecord
100
AcDbDimStyleTableRecord
  2
ISO-25
 70
     0
  3

  4

  5

  6

  7

 40
1.0
 41
2.5
 42
0.625
 43
3.75
 44
1.25
 45
0.0
 46
0.0
 47
0.0
 48
0.0
140
2.5
141
2.5
142
0.0
143
0.03937007874016
144
1.0
145
0.0
146
1.0
147
0.625
 71
     0
 72
     0
 73
     0
 74
     0
 75
     0
 76
     0
 77
     1
 78
     8
170
     0
171
     3
172
     1
173
     0
174
     0
175
     0
176
     0
177
     0
178
     0
270
     2
271
     2
272
     2
273
     2
274
     3
340
11
275
     0
280
     0
281
     0
282
     0
283
     0
284
     8
285
     0
286
     0
287
     3
288
     0
  0
ENDTAB
  0
TABLE
  2
BLOCK_RECORD
  5
1
330
0
100
AcDbSymbolTable
 70
     1
  0
BLOCK_RECORD
  5
1F
330
1
100
AcDbSymbolTableRecord
100
AcDbBlockTableRecord
  2
*MODEL_SPACE
  0
BLOCK_RECORD
  5
1B
330
1
100
AcDbSymbolTableRecord
100
AcDbBlockTableRecord
  2
*PAPER_SPACE
  0
ENDTAB
  0
ENDSEC
  0
SECTION
  2
BLOCKS
  0
BLOCK
  5
20
330
1F
100
AcDbEntity
  8
0
100
AcDbBlockBegin
  2
*MODEL_SPACE
 70
     0
 10
0.0
 20
0.0
 30
0.0
  3
*MODEL_SPACE
  1

  0
ENDBLK
  5
21
330
1F
100
AcDbEntity
  8
0
100
AcDbBlockEnd
  0
BLOCK
  5
1C
330
1B
100
AcDbEntity
 67
     1
  8
0
100
AcDbBlockBegin
  2
*PAPER_SPACE
  1

  0
ENDBLK
  5
1D
330
1B
100
AcDbEntity
 67
     1
  8
0
100
AcDbBlockEnd
  0
ENDSEC
  0
SECTION
  2
ENTITIES
  0
LWPOLYLINE
  5
100
100
AcDbEntity
  8
0
 62
7
100
AcDbPolyline
 90
9
 70
0
 10
-17.500000
 20
-15.027000
 30
0.0
 10
-17.500000
 20
15.027000
 30
0.0
 10
-15.027000
 20
17.500000
 30
0.0
 10
15.027000
 20
17.500000
 30
0.0
 10
17.500000
 20
15.027000
 30
0.0
 10
17.500000
 20
-15.027000
 30
0.0
 10
15.027000
 20
-17.500000
 30
0.0
 10
-15.027000
 20
-17.500000
 30
0.0
 10
-17.500000
 20
-15.027000
 30
0.0
  0
LWPOLYLINE
  5
101
100
AcDbEntity
  8
0
 62
7
100
AcDbPolyline
 90
9
 70
0
 10
-17.500000
 20
20.973000
 30
0.0
 10
-17.500000
 20
51.027000
 30
0.0
 10
-15.027000
 20
53.500000
 30
0.0
 10
15.027000
 20
53.500000
 30
0.0
 10
17.500000
 20
51.027000
 30
0.0
 10
17.500000
 20
20.973000
 30
0.0
 10
15.027000
 20
18.500000
 30
0.0
 10
-15.027000
 20
18.500000
 30
0.0
 10
-17.500000
 20
20.973000
 30
0.0
  0
LWPOLYLINE
  5
102
100
AcDbEntity
  8
0
 62
7
100
AcDbPolyline
 90
9
 70
0
 10
-17.500000
 20
56.973000
 30
0.0
 10
-17.500000
 20
87.027000
 30
0.0
 10
-15.027000
 20
89.500000
 30
0.0
 10
15.027000
 20
89.500000
 30
0.0
 10
17.500000
 20
87.027000
 30
0.0
 10
17.500000
 20
56.973000
 30
0.0
 10
15.027000
 20
54.500000
 30
0.0
 10
-15.027000
 20
54.500000
 30
0.0
 10
-17.500000
 20
56.973000
 30
0.0
  0
LWPOLYLINE
  5
103
100
AcDbEntity
  8
0
 62
7
100
AcDbPolyline
 90
17
 70
0
 10
-14.500000
 20
-13.000000
 30
0.0
 10
-14.386000
 20
-12.426000
 30
0.0
 10
-14.061000
 20
-11.939000
 30
0.0
 10
-13.574000
 20
-11.614000
 30
0.0
 10
-13.000000
 20
-11.500000
 30
0.0
 10
-12.426000
 20
-11.614000
 30
0.0
 10
-11.939000
 20
-11.939000
 30
0.0
 10
-11.614000
 20
-12.426000
 30
0.0
 10
-11.500000
 20
-13.000000
 30
0.0
 10
-11.614000
 20
-13.574000
 30
0.0
 10
-11.939000
 20
-14.061000
 30
0.0
 10
-12.426000
 20
-14.386000
 30
0.0
 10
-13.000000
 20
-14.500000
 30
0.0
 10
-13.574000
 20
-14.386000
 30
0.0
 10
-14.061000
 20
-14.061000
 30
0.0
 10
-14.386000
 20
-13.574000
 30
0.0
 10
-14.500000
 20
-13.000000
 30
0.0
  0
LWPOLYLINE
  5
104
100
AcDbEntity
  8
0
 62
7
100
AcDbPolyline
 90
17
 70
0
 10
-14.500000
 20
13.000000
 30
0.0
 10
-14.386000
 20
13.574000
 30
0.0
 10
-14.061000
 20
14.061000
 30
0.0
 10
-13.574000
 20
14.386000
 30
0.0
 10
-13.000000
 20
14.500000
 30
0.0
 10
-12.426000
 20
14.386000
 30
0.0
 10
-11.939000
 20
14.061000
 30
0.0
 10
-11.614000
 20
13.574000
 30
0.0
 10
-11.500000
 20
13.000000
 30
0.0
 10
-11.614000
 20
12.426000
 30
0.0
 10
-11.939000
 20
11.939000
 30
0.0
 10
-12.426000
 20
11.614000
 30
0.0
 10
-13.000000
 20
11.500000
 30
0.0
 10
-13.574000
 20
11.614000
 30
0.0
 10
-14.061000
 20
11.939000
 30
0.0
 10
-14.386000
 20
12.426000
 30
0.0
 10
-14.500000
 20
13.000000
 30
0.0
  0
LWPOLYLINE
  5
105
100
AcDbEntity
  8
0
 62
7
100
AcDbPolyline
 90
17
 70
0
 10
-14.500000
 20
23.000000
 30
0.0
 10
-14.386000
 20
23.574000
 30
0.0
 10
-14.061000
 20
24.061000
 30
0.0
 10
-13.574000
 20
24.386000
 30
0.0
 10
-13.000000
 20
24.500000
 30
0.0
 10
-12.426000
 20
24.386000
 30
0.0
 10
-11.939000
 20
24.061000
 30
0.0
 10
-11.614000
 20
23.574000
 30
0.0
 10
-11.500000
 20
23.000000
 30
0.0
 10
-11.614000
 20
22.426000
 30
0.0
 10
-11.939000
 20
21.939000
 30
0.0
 10
-12.426000
 20
21.614000
 30
0.0
 10
-13.000000
 20
21.500000
 30
0.0
 10
-13.574000
 20
21.614000
 30
0.0
 10
-14.061000
 20
21.939000
 30
0.0
 10
-14.386000
 20
22.426000
 30
0.0
 10
-14.500000
 20
23.000000
 30
0.0
  0
LWPOLYLINE
  5
106
100
AcDbEntity
  8
0
 62
7
100
AcDbPolyline
 90
17
 70
0
 10
-14.500000
 20
49.000000
 30
0.0
 10
-14.386000
 20
49.574000
 30
0.0
 10
-14.061000
 20
50.061000
 30
0.0
 10
-13.574000
 20
50.386000
 30
0.0
 10
-13.000000
 20
50.500000
 30
0.0
 10
-12.426000
 20
50.386000
 30
0.0
 10
-11.939000
 20
50.061000
 30
0.0
 10
-11.614000
 20
49.574000
 30
0.0
 10
-11.500000
 20
49.000000
 30
0.0
 10
-11.614000
 20
48.426000
 30
0.0
 10
-11.939000
 20
47.939000
 30
0.0
 10
-12.426000
 20
47.614000
 30
0.0
 10
-13.000000
 20
47.500000
 30
0.0
 10
-13.574000
 20
47.614000
 30
0.0
 10
-14.061000
 20
47.939000
 30
0.0
 10
-14.386000
 20
48.426000
 30
0.0
 10
-14.500000
 20
49.000000
 30
0.0
  0
LWPOLYLINE
  5
107
100
AcDbEntity
  8
0
 62
7
100
AcDbPolyline
 90
17
 70
0
 10
-14.500000
 20
59.000000
 30
0.0
 10
-14.386000
 20
59.574000
 30
0.0
 10
-14.061000
 20
60.061000
 30
0.0
 10
-13.574000
 20
60.386000
 30
0.0
 10
-13.000000
 20
60.500000
 30
0.0
 10
-12.426000
 20
60.386000
 30
0.0
 10
-11.939000
 20
60.061000
 30
0.0
 10
-11.614000
 20
59.574000
 30
0.0
 10
-11.500000
 20
59.000000
 30
0.0
 10
-11.614000
 20
58.426000
 30
0.0
 10
-11.939000
 20
57.939000
 30
0.0
 10
-12.426000
 20
57.614000
 30
0.0
 10
-13.000000
 20
57.500000
 30
0.0
 10
-13.574000
 20
57.614000
 30
0.0
 10
-14.061000
 20
57.939000
 30
0.0
 10
-14.386000
 20
58.426000
 30
0.0
 10
-14.500000
 20
59.000000
 30
0.0
  0
LWPOLYLINE
  5
108
100
AcDbEntity
  8
0
 62
7
100
AcDbPolyline
 90
17
 70
0
 10
-14.500000
 20
85.000000
 30
0.0
 10
-14.386000
 20
85.574000
 30
0.0
 10
-14.061000
 20
86.061000
 30
0.0
 10
-13.574000
 20
86.386000
 30
0.0
 10
-13.000000
 20
86.500000
 30
0.0
 10
-12.426000
 20
86.386000
 30
0.0
 10
-11.939000
 20
86.061000
 30
0.0
 10
-11.614000
 20
85.574000
 30
0.0
 10
-11.500000
 20
85.000000
 30
0.0
 10
-11.614000
 20
84.426000
 30
0.0
 10
-11.939000
 20
83.939000
 30
0.0
 10
-12.426000
 20
83.614000
 30
0.0
 10
-13.000000
 20
83.500000
 30
0.0
 10
-13.574000
 20
83.614000
 30
0.0
 10
-14.061000
 20
83.939000
 30
0.0
 10
-14.386000
 20
84.426000
 30
0.0
 10
-14.500000
 20
85.000000
 30
0.0
  0
LWPOLYLINE
  5
109
100
AcDbEntity
  8
0
 62
7
100
AcDbPolyline
 90
49
 70
0
 10
-11.000000
 20
-0.000000
 30
0.0
 10
-10.906000
 20
1.436000
 30
0.0
 10
-10.625000
 20
2.847000
 30
0.0
 10
-10.163000
 20
4.210000
 30
0.0
 10
-9.526000
 20
5.500000
 30
0.0
 10
-8.727000
 20
6.696000
 30
0.0
 10
-7.778000
 20
7.778000
 30
0.0
 10
-6.696000
 20
8.727000
 30
0.0
 10
-5.500000
 20
9.526000
 30
0.0
 10
-4.210000
 20
10.163000
 30
0.0
 10
-2.847000
 20
10.625000
 30
0.0
 10
-1.436000
 20
10.906000
 30
0.0
 10
0.000000
 20
11.000000
 30
0.0
 10
1.436000
 20
10.906000
 30
0.0
 10
2.847000
 20
10.625000
 30
0.0
 10
4.210000
 20
10.163000
 30
0.0
 10
5.500000
 20
9.526000
 30
0.0
 10
6.696000
 20
8.727000
 30
0.0
 10
7.778000
 20
7.778000
 30
0.0
 10
8.727000
 20
6.696000
 30
0.0
 10
9.526000
 20
5.500000
 30
0.0
 10
10.163000
 20
4.210000
 30
0.0
 10
10.625000
 20
2.847000
 30
0.0
 10
10.906000
 20
1.436000
 30
0.0
 10
11.000000
 20
-0.000000
 30
0.0
 10
10.906000
 20
-1.436000
 30
0.0
 10
10.625000
 20
-2.847000
 30
0.0
 10
10.163000
 20
-4.210000
 30
0.0
 10
9.526000
 20
-5.500000
 30
0.0
 10
8.727000
 20
-6.696000
 30
0.0
 10
7.778000
 20
-7.778000
 30
0.0
 10
6.696000
 20
-8.727000
 30
0.0
 10
5.500000
 20
-9.526000
 30
0.0
 10
4.210000
 20
-10.163000
 30
0.0
 10
2.847000
 20
-10.625000
 30
0.0
 10
1.436000
 20
-10.906000
 30
0.0
 10
0.000000
 20
-11.000000
 30
0.0
 10
-1.436000
 20
-10.906000
 30
0.0
 10
-2.847000
 20
-10.625000
 30
0.0
 10
-4.210000
 20
-10.163000
 30
0.0
 10
-5.500000
 20
-9.526000
 30
0.0
 10
-6.696000
 20
-8.727000
 30
0.0
 10
-7.778000
 20
-7.778000
 30
0.0
 10
-8.727000
 20
-6.696000
 30
0.0
 10
-9.526000
 20
-5.500000
 30
0.0
 10
-10.163000
 20
-4.210000
 30
0.0
 10
-10.625000
 20
-2.847000
 30
0.0
 10
-10.906000
 20
-1.436000
 30
0.0
 10
-11.000000
 20
-0.000000
 30
0.0
  0
LWPOLYLINE
  5
10a
100
AcDbEntity
  8
0
 62
7
100
AcDbPolyline
 90
49
 70
0
 10
-11.000000
 20
36.000000
 30
0.0
 10
-10.906000
 20
37.436000
 30
0.0
 10
-10.625000
 20
38.847000
 30
0.0
 10
-10.163000
 20
40.210000
 30
0.0
 10
-9.526000
 20
41.500000
 30
0.0
 10
-8.727000
 20
42.696000
 30
0.0
 10
-7.778000
 20
43.778000
 30
0.0
 10
-6.696000
 20
44.727000
 30
0.0
 10
-5.500000
 20
45.526000
 30
0.0
 10
-4.210000
 20
46.163000
 30
0.0
 10
-2.847000
 20
46.625000
 30
0.0
 10
-1.436000
 20
46.906000
 30
0.0
 10
0.000000
 20
47.000000
 30
0.0
 10
1.436000
 20
46.906000
 30
0.0
 10
2.847000
 20
46.625000
 30
0.0
 10
4.210000
 20
46.163000
 30
0.0
 10
5.500000
 20
45.526000
 30
0.0
 10
6.696000
 20
44.727000
 30
0.0
 10
7.778000
 20
43.778000
 30
0.0
 10
8.727000
 20
42.696000
 30
0.0
 10
9.526000
 20
41.500000
 30
0.0
 10
10.163000
 20
40.210000
 30
0.0
 10
10.625000
 20
38.847000
 30
0.0
 10
10.906000
 20
37.436000
 30
0.0
 10
11.000000
 20
36.000000
 30
0.0
 10
10.906000
 20
34.564000
 30
0.0
 10
10.625000
 20
33.153000
 30
0.0
 10
10.163000
 20
31.790000
 30
0.0
 10
9.526000
 20
30.500000
 30
0.0
 10
8.727000
 20
29.304000
 30
0.0
 10
7.778000
 20
28.222000
 30
0.0
 10
6.696000
 20
27.273000
 30
0.0
 10
5.500000
 20
26.474000
 30
0.0
 10
4.210000
 20
25.837000
 30
0.0
 10
2.847000
 20
25.375000
 30
0.0
 10
1.436000
 20
25.094000
 30
0.0
 10
0.000000
 20
25.000000
 30
0.0
 10
-1.436000
 20
25.094000
 30
0.0
 10
-2.847000
 20
25.375000
 30
0.0
 10
-4.210000
 20
25.837000
 30
0.0
 10
-5.500000
 20
26.474000
 30
0.0
 10
-6.696000
 20
27.273000
 30
0.0
 10
-7.778000
 20
28.222000
 30
0.0
 10
-8.727000
 20
29.304000
 30
0.0
 10
-9.526000
 20
30.500000
 30
0.0
 10
-10.163000
 20
31.790000
 30
0.0
 10
-10.625000
 20
33.153000
 30
0.0
 10
-10.906000
 20
34.564000
 30
0.0
 10
-11.000000
 20
36.000000
 30
0.0
  0
LWPOLYLINE
  5
10b
100
AcDbEntity
  8
0
 62
7
100
AcDbPolyline
 90
49
 70
0
 10
-11.000000
 20
72.000000
 30
0.0
 10
-10.906000
 20
73.436000
 30
0.0
 10
-10.625000
 20
74.847000
 30
0.0
 10
-10.163000
 20
76.210000
 30
0.0
 10
-9.526000
 20
77.500000
 30
0.0
 10
-8.727000
 20
78.696000
 30
0.0
 10
-7.778000
 20
79.778000
 30
0.0
 10
-6.696000
 20
80.727000
 30
0.0
 10
-5.500000
 20
81.526000
 30
0.0
 10
-4.210000
 20
82.163000
 30
0.0
 10
-2.847000
 20
82.625000
 30
0.0
 10
-1.436000
 20
82.906000
 30
0.0
 10
0.000000
 20
83.000000
 30
0.0
 10
1.436000
 20
82.906000
 30
0.0
 10
2.847000
 20
82.625000
 30
0.0
 10
4.210000
 20
82.163000
 30
0.0
 10
5.500000
 20
81.526000
 30
0.0
 10
6.696000
 20
80.727000
 30
0.0
 10
7.778000
 20
79.778000
 30
0.0
 10
8.727000
 20
78.696000
 30
0.0
 10
9.526000
 20
77.500000
 30
0.0
 10
10.163000
 20
76.210000
 30
0.0
 10
10.625000
 20
74.847000
 30
0.0
 10
10.906000
 20
73.436000
 30
0.0
 10
11.000000
 20
72.000000
 30
0.0
 10
10.906000
 20
70.564000
 30
0.0
 10
10.625000
 20
69.153000
 30
0.0
 10
10.163000
 20
67.790000
 30
0.0
 10
9.526000
 20
66.500000
 30
0.0
 10
8.727000
 20
65.304000
 30
0.0
 10
7.778000
 20
64.222000
 30
0.0
 10
6.696000
 20
63.273000
 30
0.0
 10
5.500000
 20
62.474000
 30
0.0
 10
4.210000
 20
61.837000
 30
0.0
 10
2.847000
 20
61.375000
 30
0.0
 10
1.436000
 20
61.094000
 30
0.0
 10
0.000000
 20
61.000000
 30
0.0
 10
-1.436000
 20
61.094000
 30
0.0
 10
-2.847000
 20
61.375000
 30
0.0
 10
-4.210000
 20
61.837000
 30
0.0
 10
-5.500000
 20
62.474000
 30
0.0
 10
-6.696000
 20
63.273000
 30
0.0
 10
-7.778000
 20
64.222000
 30
0.0
 10
-8.727000
 20
65.304000
 30
0.0
 10
-9.526000
 20
66.500000
 30
0.0
 10
-10.163000
 20
67.790000
 30
0.0
 10
-10.625000
 20
69.153000
 30
0.0
 10
-10.906000
 20
70.564000
 30
0.0
 10
-11.000000
 20
72.000000
 30
0.0
  0
LWPOLYLINE
  5
10c
100
AcDbEntity
  8
0
 62
7
100
AcDbPolyline
 90
17
 70
0
 10
11.500000
 20
-13.000000
 30
0.0
 10
11.614000
 20
-12.426000
 30
0.0
 10
11.939000
 20
-11.939000
 30
0.0
 10
12.426000
 20
-11.614000
 30
0.0
 10
13.000000
 20
-11.500000
 30
0.0
 10
13.574000
 20
-11.614000
 30
0.0
 10
14.061000
 20
-11.939000
 30
0.0
 10
14.386000
 20
-12.426000
 30
0.0
 10
14.500000
 20
-13.000000
 30
0.0
 10
14.386000
 20
-13.574000
 30
0.0
 10
14.061000
 20
-14.061000
 30
0.0
 10
13.574000
 20
-14.386000
 30
0.0
 10
13.000000
 20
-14.500000
 30
0.0
 10
12.426000
 20
-14.386000
 30
0.0
 10
11.939000
 20
-14.061000
 30
0.0
 10
11.614000
 20
-13.574000
 30
0.0
 10
11.500000
 20
-13.000000
 30
0.0
  0
LWPOLYLINE
  5
10d
100
AcDbEntity
  8
0
 62
7
100
AcDbPolyline
 90
17
 70
0
 10
11.500000
 20
13.000000
 30
0.0
 10
11.614000
 20
13.574000
 30
0.0
 10
11.939000
 20
14.061000
 30
0.0
 10
12.426000
 20
14.386000
 30
0.0
 10
13.000000
 20
14.500000
 30
0.0
 10
13.574000
 20
14.386000
 30
0.0
 10
14.061000
 20
14.061000
 30
0.0
 10
14.386000
 20
13.574000
 30
0.0
 10
14.500000
 20
13.000000
 30
0.0
 10
14.386000
 20
12.426000
 30
0.0
 10
14.061000
 20
11.939000
 30
0.0
 10
13.574000
 20
11.614000
 30
0.0
 10
13.000000
 20
11.500000
 30
0.0
 10
12.426000
 20
11.614000
 30
0.0
 10
11.939000
 20
11.939000
 30
0.0
 10
11.614000
 20
12.426000
 30
0.0
 10
11.500000
 20
13.000000
 30
0.0
  0
LWPOLYLINE
  5
10e
100
AcDbEntity
  8
0
 62
7
100
AcDbPolyline
 90
17
 70
0
 10
11.500000
 20
23.000000
 30
0.0
 10
11.614000
 20
23.574000
 30
0.0
 10
11.939000
 20
24.061000
 30
0.0
 10
12.426000
 20
24.386000
 30
0.0
 10
13.000000
 20
24.500000
 30
0.0
 10
13.574000
 20
24.386000
 30
0.0
 10
14.061000
 20
24.061000
 30
0.0
 10
14.386000
 20
23.574000
 30
0.0
 10
14.500000
 20
23.000000
 30
0.0
 10
14.386000
 20
22.426000
 30
0.0
 10
14.061000
 20
21.939000
 30
0.0
 10
13.574000
 20
21.614000
 30
0.0
 10
13.000000
 20
21.500000
 30
0.0
 10
12.426000
 20
21.614000
 30
0.0
 10
11.939000
 20
21.939000
 30
0.0
 10
11.614000
 20
22.426000
 30
0.0
 10
11.500000
 20
23.000000
 30
0.0
  0
LWPOLYLINE
  5
10f
100
AcDbEntity
  8
0
 62
7
100
AcDbPolyline
 90
17
 70
0
 10
11.500000
 20
49.000000
 30
0.0
 10
11.614000
 20
49.574000
 30
0.0
 10
11.939000
 20
50.061000
 30
0.0
 10
12.426000
 20
50.386000
 30
0.0
 10
13.000000
 20
50.500000
 30
0.0
 10
13.574000
 20
50.386000
 30
0.0
 10
14.061000
 20
50.061000
 30
0.0
 10
14.386000
 20
49.574000
 30
0.0
 10
14.500000
 20
49.000000
 30
0.0
 10
14.386000
 20
48.426000
 30
0.0
 10
14.061000
 20
47.939000
 30
0.0
 10
13.574000
 20
47.614000
 30
0.0
 10
13.000000
 20
47.500000
 30
0.0
 10
12.426000
 20
47.614000
 30
0.0
 10
11.939000
 20
47.939000
 30
0.0
 10
11.614000
 20
48.426000
 30
0.0
 10
11.500000
 20
49.000000
 30
0.0
  0
LWPOLYLINE
  5
110
100
AcDbEntity
  8
0
 62
7
100
AcDbPolyline
 90
17
 70
0
 10
11.500000
 20
59.000000
 30
0.0
 10
11.614000
 20
59.574000
 30
0.0
 10
11.939000
 20
60.061000
 30
0.0
 10
12.426000
 20
60.386000
 30
0.0
 10
13.000000
 20
60.500000
 30
0.0
 10
13.574000
 20
60.386000
 30
0.0
 10
14.061000
 20
60.061000
 30
0.0
 10
14.386000
 20
59.574000
 30
0.0
 10
14.500000
 20
59.000000
 30
0.0
 10
14.386000
 20
58.426000
 30
0.0
 10
14.061000
 20
57.939000
 30
0.0
 10
13.574000
 20
57.614000
 30
0.0
 10
13.000000
 20
57.500000
 30
0.0
 10
12.426000
 20
57.614000
 30
0.0
 10
11.939000
 20
57.939000
 30
0.0
 10
11.614000
 20
58.426000
 30
0.0
 10
11.500000
 20
59.000000
 30
0.0
  0
LWPOLYLINE
  5
111
100
AcDbEntity
  8
0
 62
7
100
AcDbPolyline
 90
17
 70
0
 10
11.500000
 20
85.000000
 30
0.0
 10
11.614000
 20
85.574000
 30
0.0
 10
11.939000
 20
86.061000
 30
0.0
 10
12.426000
 20
86.386000
 30
0.0
 10
13.000000
 20
86.500000
 30
0.0
 10
13.574000
 20
86.386000
 30
0.0
 10
14.061000
 20
86.061000
 30
0.0
 10
14.386000
 20
85.574000
 30
0.0
 10
14.500000
 20
85.000000
 30
0.0
 10
14.386000
 20
84.426000
 30
0.0
 10
14.061000
 20
83.939000
 30
0.0
 10
13.574000
 20
83.614000
 30
0.0
 10
13.000000
 20
83.500000
 30
0.0
 10
12.426000
 20
83.614000
 30
0.0
 10
11.939000
 20
83.939000
 30
0.0
 10
11.614000
 20
84.426000
 30
0.0
 10
11.500000
 20
85.000000
 30
0.0
  0
ENDSEC
  0
SECTION
  2
OBJECTS
  0
DICTIONARY
  5
C
330
0
100
AcDbDictionary
  3
ACAD_GROUP
350
D
  3
ACAD_MLINESTYLE
350
17
  0
DICTIONARY
  5
D
330
C
100
AcDbDictionary
  0
DICTIONARY
  5
1A
330
C
100
AcDbDictionary
  0
DICTIONARY
  5
17
330
C
100
AcDbDictionary
  3
STANDARD
350
18
  0
DICTIONARY
  5
19
330
C
100
AcDbDictionary
  0
ENDSEC
  0
EOF
