999
DXF created by Inkscape
  0
SECTION
  2
HEADER
  9
$ACADVER
  1
AC1014
  9
$HANDSEED
  5
FFFF
  9
$MEASUREMENT
 70
     1
  0
ENDSEC
  0
SECTION
  2
TABLES
  0
TABLE
  2
VPORT
  5
8
330
0
100
AcDbSymbolTable
 70
     4
  0
VPORT
  5
2E
330
8
100
AcDbSymbolTableRecord
100
AcDbViewportTableRecord
  2
*ACTIVE
 70
     0
 10
0.0
 20
0.0
 11
1.0
 21
1.0
 12
210.0
 22
148.5
 13
0.0
 23
0.0
 14
10.0
 24
10.0
 15
10.0
 25
10.0
 16
0.0
 26
0.0
 36
1.0
 17
0.0
 27
0.0
 37
0.0
 40
341.0
 41
1.24
 42
50.0
 43
0.0
 44
0.0
 50
0.0
 51
0.0
 71
     0
 72
   100
 73
     1
 74
     3
 75
     0
 76
     0
 77
     0
 78
     0
  0
ENDTAB
  0
TABLE
  2
LTYPE
  5
5
330
0
100
AcDbSymbolTable
 70
     1
  0
LTYPE
  5
14
330
5
100
AcDbSymbolTableRecord
100
AcDbLinetypeTableRecord
  2
BYBLOCK
 70
     0
  3

 72
    65
 73
     0
 40
0.0
  0
LTYPE
  5
15
330
5
100
AcDbSymbolTableRecord
100
AcDbLinetypeTableRecord
  2
BYLAYER
 70
     0
  3

 72
    65
 73
     0
 40
0.0
  0
LTYPE
  5
16
330
5
100
AcDbSymbolTableRecord
100
AcDbLinetypeTableRecord
  2
CONTINUOUS
 70
     0
  3
Solid line
 72
    65
 73
     0
 40
0.0
  0
ENDTAB
  0
TABLE
  2
LAYER
  5
2
100
AcDbSymbolTable
 70
1
  0
LAYER
  5
50
100
AcDbSymbolTableRecord
100
AcDbLayerTableRecord
  2
0
 70
0
  6
CONTINUOUS
  0
ENDTAB
  0
TABLE
  2
STYLE
  5
3
330
0
100
AcDbSymbolTable
 70
     1
  0
STYLE
  5
11
330
3
100
AcDbSymbolTableRecord
100
AcDbTextStyleTableRecord
  2
STANDARD
 70
     0
 40
0.0
 41
1.0
 50
0.0
 71
     0
 42
2.5
  3
txt
  4

  0
ENDTAB
  0
TABLE
  2
VIEW
  5
6
330
0
100
AcDbSymbolTable
 70
     0
  0
ENDTAB
  0
TABLE
  2
UCS
  5
7
330
0
100
AcDbSymbolTable
 70
     0
  0
ENDTAB
  0
TABLE
  2
APPID
  5
9
330
0
100
AcDbSymbolTable
 70
     2
  0
APPID
  5
12
330
9
100
AcDbSymbolTableRecord
100
AcDbRegAppTableRecord
  2
ACAD
 70
     0
  0
ENDTAB
  0
TABLE
  2
DIMSTYLE
  5
A
330
0
100
AcDbSymbolTable
 70
     1
  0
DIMSTYLE
105
27
330
A
100
AcDbSymbolTableRecord
100
AcDbDimStyleTableRecord
  2
ISO-25
 70
     0
  3

  4

  5

  6

  7

 40
1.0
 41
2.5
 42
0.625
 43
3.75
 44
1.25
 45
0.0
 46
0.0
 47
0.0
 48
0.0
140
2.5
141
2.5
142
0.0
143
0.03937007874016
144
1.0
145
0.0
146
1.0
147
0.625
 71
     0
 72
     0
 73
     0
 74
     0
 75
     0
 76
     0
 77
     1
 78
     8
170
     0
171
     3
172
     1
173
     0
174
     0
175
     0
176
     0
177
     0
178
     0
270
     2
271
     2
272
     2
273
     2
274
     3
340
11
275
     0
280
     0
281
     0
282
     0
283
     0
284
     8
285
     0
286
     0
287
     3
288
     0
  0
ENDTAB
  0
TABLE
  2
BLOCK_RECORD
  5
1
330
0
100
AcDbSymbolTable
 70
     1
  0
BLOCK_RECORD
  5
1F
330
1
100
AcDbSymbolTableRecord
100
AcDbBlockTableRecord
  2
*MODEL_SPACE
  0
BLOCK_RECORD
  5
1B
330
1
100
AcDbSymbolTableRecord
100
AcDbBlockTableRecord
  2
*PAPER_SPACE
  0
ENDTAB
  0
ENDSEC
  0
SECTION
  2
BLOCKS
  0
BLOCK
  5
20
330
1F
100
AcDbEntity
  8
0
100
AcDbBlockBegin
  2
*MODEL_SPACE
 70
     0
 10
0.0
 20
0.0
 30
0.0
  3
*MODEL_SPACE
  1

  0
ENDBLK
  5
21
330
1F
100
AcDbEntity
  8
0
100
AcDbBlockEnd
  0
BLOCK
  5
1C
330
1B
100
AcDbEntity
 67
     1
  8
0
100
AcDbBlockBegin
  2
*PAPER_SPACE
  1

  0
ENDBLK
  5
1D
330
1B
100
AcDbEntity
 67
     1
  8
0
100
AcDbBlockEnd
  0
ENDSEC
  0
SECTION
  2
ENTITIES
  0
LWPOLYLINE
  5
100
100
AcDbEntity
  8
0
 62
7
100
AcDbPolyline
 90
35
 70
0
 10
89.170000
 20
61.497000
 30
0.0
 10
89.432000
 20
63.992000
 30
0.0
 10
90.207000
 20
66.378000
 30
0.0
 10
125.938000
 20
128.265000
 30
0.0
 10
127.193000
 20
130.437000
 30
0.0
 10
128.871000
 20
132.302000
 30
0.0
 10
130.901000
 20
133.776000
 30
0.0
 10
133.193000
 20
134.797000
 30
0.0
 10
135.647000
 20
135.318000
 30
0.0
 10
316.333000
 20
135.318000
 30
0.0
 10
318.787000
 20
134.797000
 30
0.0
 10
321.079000
 20
133.776000
 30
0.0
 10
323.109000
 20
132.302000
 30
0.0
 10
324.787000
 20
130.437000
 30
0.0
 10
326.042000
 20
128.265000
 30
0.0
 10
361.773000
 20
66.378000
 30
0.0
 10
362.548000
 20
63.992000
 30
0.0
 10
362.810000
 20
61.497000
 30
0.0
 10
362.548000
 20
59.002000
 30
0.0
 10
361.773000
 20
56.616000
 30
0.0
 10
272.683000
 20
-97.691000
 30
0.0
 10
271.428000
 20
-99.863000
 30
0.0
 10
269.750000
 20
-101.728000
 30
0.0
 10
267.720000
 20
-103.202000
 30
0.0
 10
265.428000
 20
-104.223000
 30
0.0
 10
262.974000
 20
-104.744000
 30
0.0
 10
189.006000
 20
-104.744000
 30
0.0
 10
186.552000
 20
-104.223000
 30
0.0
 10
184.260000
 20
-103.202000
 30
0.0
 10
182.230000
 20
-101.728000
 30
0.0
 10
180.552000
 20
-99.863000
 30
0.0
 10
179.297000
 20
-97.691000
 30
0.0
 10
90.207000
 20
56.616000
 30
0.0
 10
89.432000
 20
59.002000
 30
0.0
 10
89.170000
 20
61.497000
 30
0.0
  0
LWPOLYLINE
  5
101
100
AcDbEntity
  8
0
 62
7
100
AcDbPolyline
 90
13
 70
0
 10
98.572000
 20
68.459000
 30
0.0
 10
98.840000
 20
69.459000
 30
0.0
 10
99.572000
 20
70.191000
 30
0.0
 10
100.572000
 20
70.459000
 30
0.0
 10
101.572000
 20
70.191000
 30
0.0
 10
102.304000
 20
69.459000
 30
0.0
 10
102.572000
 20
68.459000
 30
0.0
 10
102.304000
 20
67.459000
 30
0.0
 10
101.572000
 20
66.727000
 30
0.0
 10
100.572000
 20
66.459000
 30
0.0
 10
99.572000
 20
66.727000
 30
0.0
 10
98.840000
 20
67.459000
 30
0.0
 10
98.572000
 20
68.459000
 30
0.0
  0
LWPOLYLINE
  5
102
100
AcDbEntity
  8
0
 62
7
100
AcDbPolyline
 90
13
 70
0
 10
128.572000
 20
120.421000
 30
0.0
 10
128.840000
 20
121.421000
 30
0.0
 10
129.572000
 20
122.153000
 30
0.0
 10
130.572000
 20
122.421000
 30
0.0
 10
131.572000
 20
122.153000
 30
0.0
 10
132.304000
 20
121.421000
 30
0.0
 10
132.572000
 20
120.421000
 30
0.0
 10
132.304000
 20
119.421000
 30
0.0
 10
131.572000
 20
118.689000
 30
0.0
 10
130.572000
 20
118.421000
 30
0.0
 10
129.572000
 20
118.689000
 30
0.0
 10
128.840000
 20
119.421000
 30
0.0
 10
128.572000
 20
120.421000
 30
0.0
  0
LWPOLYLINE
  5
103
100
AcDbEntity
  8
0
 62
7
100
AcDbPolyline
 90
35
 70
0
 10
143.898000
 20
49.174000
 30
0.0
 10
144.055000
 20
50.671000
 30
0.0
 10
144.520000
 20
52.103000
 30
0.0
 10
165.959000
 20
89.235000
 30
0.0
 10
166.712000
 20
90.538000
 30
0.0
 10
167.719000
 20
91.657000
 30
0.0
 10
168.937000
 20
92.542000
 30
0.0
 10
170.312000
 20
93.154000
 30
0.0
 10
171.784000
 20
93.467000
 30
0.0
 10
280.196000
 20
93.467000
 30
0.0
 10
281.668000
 20
93.154000
 30
0.0
 10
283.043000
 20
92.542000
 30
0.0
 10
284.261000
 20
91.657000
 30
0.0
 10
285.268000
 20
90.538000
 30
0.0
 10
286.021000
 20
89.235000
 30
0.0
 10
307.460000
 20
52.103000
 30
0.0
 10
307.925000
 20
50.671000
 30
0.0
 10
308.082000
 20
49.174000
 30
0.0
 10
307.925000
 20
47.677000
 30
0.0
 10
307.460000
 20
46.246000
 30
0.0
 10
254.006000
 20
-46.339000
 30
0.0
 10
253.253000
 20
-47.642000
 30
0.0
 10
252.246000
 20
-48.761000
 30
0.0
 10
251.028000
 20
-49.645000
 30
0.0
 10
249.653000
 20
-50.258000
 30
0.0
 10
248.180000
 20
-50.570000
 30
0.0
 10
203.800000
 20
-50.570000
 30
0.0
 10
202.327000
 20
-50.258000
 30
0.0
 10
200.952000
 20
-49.645000
 30
0.0
 10
199.734000
 20
-48.761000
 30
0.0
 10
198.727000
 20
-47.642000
 30
0.0
 10
197.974000
 20
-46.339000
 30
0.0
 10
144.520000
 20
46.246000
 30
0.0
 10
144.055000
 20
47.677000
 30
0.0
 10
143.898000
 20
49.174000
 30
0.0
  0
LWPOLYLINE
  5
104
100
AcDbEntity
  8
0
 62
7
100
AcDbPolyline
 90
5
 70
0
 10
144.959000
 20
25.909000
 30
0.0
 10
146.258000
 20
26.659000
 30
0.0
 10
147.758000
 20
24.061000
 30
0.0
 10
146.459000
 20
23.311000
 30
0.0
 10
144.959000
 20
25.909000
 30
0.0
  0
LWPOLYLINE
  5
105
100
AcDbEntity
  8
0
 62
7
100
AcDbPolyline
 90
5
 70
0
 10
150.155000
 20
28.909000
 30
0.0
 10
151.454000
 20
29.659000
 30
0.0
 10
152.954000
 20
27.061000
 30
0.0
 10
151.655000
 20
26.311000
 30
0.0
 10
150.155000
 20
28.909000
 30
0.0
  0
LWPOLYLINE
  5
106
100
AcDbEntity
  8
0
 62
7
100
AcDbPolyline
 90
5
 70
0
 10
172.875000
 20
-82.598000
 30
0.0
 10
175.473000
 20
-81.098000
 30
0.0
 10
176.223000
 20
-82.397000
 30
0.0
 10
173.625000
 20
-83.897000
 30
0.0
 10
172.875000
 20
-82.598000
 30
0.0
  0
LWPOLYLINE
  5
107
100
AcDbEntity
  8
0
 62
7
100
AcDbPolyline
 90
5
 70
0
 10
175.875000
 20
-87.794000
 30
0.0
 10
178.473000
 20
-86.294000
 30
0.0
 10
179.223000
 20
-87.593000
 30
0.0
 10
176.625000
 20
-89.093000
 30
0.0
 10
175.875000
 20
-87.794000
 30
0.0
  0
LWPOLYLINE
  5
108
100
AcDbEntity
  8
0
 62
7
100
AcDbPolyline
 90
5
 70
0
 10
179.834000
 20
-34.497000
 30
0.0
 10
181.133000
 20
-33.747000
 30
0.0
 10
182.633000
 20
-36.345000
 30
0.0
 10
181.334000
 20
-37.095000
 30
0.0
 10
179.834000
 20
-34.497000
 30
0.0
  0
LWPOLYLINE
  5
109
100
AcDbEntity
  8
0
 62
7
100
AcDbPolyline
 90
5
 70
0
 10
185.030000
 20
-31.497000
 30
0.0
 10
186.329000
 20
-30.747000
 30
0.0
 10
187.829000
 20
-33.345000
 30
0.0
 10
186.530000
 20
-34.095000
 30
0.0
 10
185.030000
 20
-31.497000
 30
0.0
  0
LWPOLYLINE
  5
10a
100
AcDbEntity
  8
0
 62
7
100
AcDbPolyline
 90
13
 70
0
 10
193.990000
 20
-96.810000
 30
0.0
 10
194.258000
 20
-95.810000
 30
0.0
 10
194.990000
 20
-95.078000
 30
0.0
 10
195.990000
 20
-94.810000
 30
0.0
 10
196.990000
 20
-95.078000
 30
0.0
 10
197.722000
 20
-95.810000
 30
0.0
 10
197.990000
 20
-96.810000
 30
0.0
 10
197.722000
 20
-97.810000
 30
0.0
 10
196.990000
 20
-98.542000
 30
0.0
 10
195.990000
 20
-98.810000
 30
0.0
 10
194.990000
 20
-98.542000
 30
0.0
 10
194.258000
 20
-97.810000
 30
0.0
 10
193.990000
 20
-96.810000
 30
0.0
  0
LWPOLYLINE
  5
10b
100
AcDbEntity
  8
0
 62
7
100
AcDbPolyline
 90
13
 70
0
 10
253.990000
 20
-96.810000
 30
0.0
 10
254.258000
 20
-95.810000
 30
0.0
 10
254.990000
 20
-95.078000
 30
0.0
 10
255.990000
 20
-94.810000
 30
0.0
 10
256.990000
 20
-95.078000
 30
0.0
 10
257.722000
 20
-95.810000
 30
0.0
 10
257.990000
 20
-96.810000
 30
0.0
 10
257.722000
 20
-97.810000
 30
0.0
 10
256.990000
 20
-98.542000
 30
0.0
 10
255.990000
 20
-98.810000
 30
0.0
 10
254.990000
 20
-98.542000
 30
0.0
 10
254.258000
 20
-97.810000
 30
0.0
 10
253.990000
 20
-96.810000
 30
0.0
  0
LWPOLYLINE
  5
10c
100
AcDbEntity
  8
0
 62
7
100
AcDbPolyline
 90
5
 70
0
 10
264.151000
 20
-33.345000
 30
0.0
 10
265.651000
 20
-30.747000
 30
0.0
 10
266.950000
 20
-31.497000
 30
0.0
 10
265.450000
 20
-34.095000
 30
0.0
 10
264.151000
 20
-33.345000
 30
0.0
  0
LWPOLYLINE
  5
10d
100
AcDbEntity
  8
0
 62
7
100
AcDbPolyline
 90
5
 70
0
 10
269.347000
 20
-36.345000
 30
0.0
 10
270.847000
 20
-33.747000
 30
0.0
 10
272.146000
 20
-34.497000
 30
0.0
 10
270.646000
 20
-37.095000
 30
0.0
 10
269.347000
 20
-36.345000
 30
0.0
  0
LWPOLYLINE
  5
10e
100
AcDbEntity
  8
0
 62
7
100
AcDbPolyline
 90
5
 70
0
 10
299.026000
 20
27.061000
 30
0.0
 10
300.526000
 20
29.659000
 30
0.0
 10
301.825000
 20
28.909000
 30
0.0
 10
300.325000
 20
26.311000
 30
0.0
 10
299.026000
 20
27.061000
 30
0.0
  0
LWPOLYLINE
  5
10f
100
AcDbEntity
  8
0
 62
7
100
AcDbPolyline
 90
5
 70
0
 10
304.222000
 20
24.061000
 30
0.0
 10
305.722000
 20
26.659000
 30
0.0
 10
307.021000
 20
25.909000
 30
0.0
 10
305.521000
 20
23.311000
 30
0.0
 10
304.222000
 20
24.061000
 30
0.0
  0
LWPOLYLINE
  5
110
100
AcDbEntity
  8
0
 62
7
100
AcDbPolyline
 90
13
 70
0
 10
319.408000
 20
120.421000
 30
0.0
 10
319.676000
 20
121.421000
 30
0.0
 10
320.408000
 20
122.153000
 30
0.0
 10
321.408000
 20
122.421000
 30
0.0
 10
322.408000
 20
122.153000
 30
0.0
 10
323.140000
 20
121.421000
 30
0.0
 10
323.408000
 20
120.421000
 30
0.0
 10
323.140000
 20
119.421000
 30
0.0
 10
322.408000
 20
118.689000
 30
0.0
 10
321.408000
 20
118.421000
 30
0.0
 10
320.408000
 20
118.689000
 30
0.0
 10
319.676000
 20
119.421000
 30
0.0
 10
319.408000
 20
120.421000
 30
0.0
  0
LWPOLYLINE
  5
111
100
AcDbEntity
  8
0
 62
7
100
AcDbPolyline
 90
13
 70
0
 10
349.408000
 20
68.459000
 30
0.0
 10
349.676000
 20
69.459000
 30
0.0
 10
350.408000
 20
70.191000
 30
0.0
 10
351.408000
 20
70.459000
 30
0.0
 10
352.408000
 20
70.191000
 30
0.0
 10
353.140000
 20
69.459000
 30
0.0
 10
353.408000
 20
68.459000
 30
0.0
 10
353.140000
 20
67.459000
 30
0.0
 10
352.408000
 20
66.727000
 30
0.0
 10
351.408000
 20
66.459000
 30
0.0
 10
350.408000
 20
66.727000
 30
0.0
 10
349.676000
 20
67.459000
 30
0.0
 10
349.408000
 20
68.459000
 30
0.0
  0
ENDSEC
  0
SECTION
  2
OBJECTS
  0
DICTIONARY
  5
C
330
0
100
AcDbDictionary
  3
ACAD_GROUP
350
D
  3
ACAD_MLINESTYLE
350
17
  0
DICTIONARY
  5
D
330
C
100
AcDbDictionary
  0
DICTIONARY
  5
1A
330
C
100
AcDbDictionary
  0
DICTIONARY
  5
17
330
C
100
AcDbDictionary
  3
STANDARD
350
18
  0
DICTIONARY
  5
19
330
C
100
AcDbDictionary
  0
ENDSEC
  0
EOF
